<svg width="262" height="78" viewBox="0 0 262 78" fill="none" xmlns="http://www.w3.org/2000/svg">
<path d="M0.845001 76V1.75H19.925C25.205 1.75 30.11 2.695 34.64 4.58499C39.17 6.475 43.13 9.115 46.52 12.505C49.94 15.865 52.595 19.81 54.485 24.34C56.405 28.84 57.365 33.7 57.365 38.92C57.365 44.14 56.42 49 54.53 53.5C52.64 58 49.985 61.945 46.565 65.335C43.175 68.695 39.2 71.32 34.64 73.21C30.11 75.07 25.205 76 19.925 76H0.845001ZM12.635 65.425H18.665C22.385 65.425 25.82 64.765 28.97 63.445C32.15 62.125 34.91 60.265 37.25 57.865C39.62 55.465 41.45 52.66 42.74 49.45C44.06 46.21 44.72 42.685 44.72 38.875C44.72 35.095 44.06 31.585 42.74 28.345C41.45 25.105 39.62 22.3 37.25 19.93C34.91 17.53 32.15 15.67 28.97 14.35C25.82 13 22.385 12.325 18.665 12.325H12.635V65.425ZM101.604 77.44C96.4142 77.44 91.5542 76.45 87.0242 74.47C82.4942 72.49 78.5192 69.745 75.0992 66.235C71.6792 62.695 68.9942 58.6 67.0442 53.95C65.1242 49.27 64.1642 44.26 64.1642 38.92C64.1642 33.55 65.1242 28.54 67.0442 23.89C68.9942 19.24 71.6792 15.16 75.0992 11.65C78.5192 8.11 82.4942 5.35 87.0242 3.37C91.5542 1.39 96.4142 0.399997 101.604 0.399997C106.794 0.399997 111.654 1.39 116.184 3.37C120.714 5.35 124.689 8.11 128.109 11.65C131.529 15.16 134.199 19.24 136.119 23.89C138.069 28.54 139.044 33.55 139.044 38.92C139.044 44.26 138.069 49.27 136.119 53.95C134.199 58.6 131.529 62.695 128.109 66.235C124.689 69.745 120.714 72.49 116.184 74.47C111.654 76.45 106.794 77.44 101.604 77.44ZM101.604 66.1C105.144 66.1 108.414 65.425 111.414 64.075C114.444 62.695 117.069 60.79 119.289 58.36C121.539 55.9 123.279 53.02 124.509 49.72C125.739 46.42 126.354 42.82 126.354 38.92C126.354 35.02 125.739 31.42 124.509 28.12C123.279 24.82 121.539 21.955 119.289 19.525C117.069 17.065 114.444 15.16 111.414 13.81C108.414 12.43 105.144 11.74 101.604 11.74C98.0942 11.74 94.8242 12.43 91.7942 13.81C88.7942 15.16 86.1692 17.065 83.9192 19.525C81.6992 21.955 79.9742 24.82 78.7442 28.12C77.5142 31.42 76.8992 35.02 76.8992 38.92C76.8992 42.82 77.5142 46.42 78.7442 49.72C79.9742 53.02 81.6992 55.9 83.9192 58.36C86.1692 60.79 88.7942 62.695 91.7942 64.075C94.8242 65.425 98.0942 66.1 101.604 66.1ZM184.266 77.44C178.656 77.44 173.421 76.465 168.561 74.515C163.701 72.535 159.426 69.79 155.736 66.28C152.076 62.77 149.211 58.69 147.141 54.04C145.071 49.36 144.036 44.32 144.036 38.92C144.036 33.55 145.071 28.525 147.141 23.845C149.241 19.165 152.121 15.07 155.781 11.56C159.441 8.05 163.686 5.32 168.516 3.37C173.376 1.39 178.596 0.399997 184.176 0.399997C188.766 0.399997 193.116 1.06 197.226 2.38C201.336 3.7 204.891 5.455 207.891 7.645L202.716 17.635C200.466 15.835 197.796 14.44 194.706 13.45C191.616 12.46 188.361 11.965 184.941 11.965C180.891 11.965 177.156 12.655 173.736 14.035C170.316 15.415 167.331 17.335 164.781 19.795C162.261 22.225 160.311 25.075 158.931 28.345C157.551 31.615 156.861 35.14 156.861 38.92C156.861 42.7 157.551 46.225 158.931 49.495C160.311 52.765 162.261 55.63 164.781 58.09C167.331 60.52 170.316 62.425 173.736 63.805C177.156 65.185 180.891 65.875 184.941 65.875C188.361 65.875 191.616 65.38 194.706 64.39C197.796 63.4 200.466 62.005 202.716 60.205L207.891 70.195C204.981 72.325 201.471 74.065 197.361 75.415C193.281 76.765 188.916 77.44 184.266 77.44ZM235.862 77.44C232.292 77.44 229.052 76.99 226.142 76.09C223.232 75.19 220.667 74.08 218.447 72.76C216.257 71.41 214.412 70.06 212.912 68.71C211.412 67.36 210.272 66.25 209.492 65.38L215.702 55.84C216.542 56.71 217.592 57.745 218.852 58.945C220.142 60.145 221.642 61.33 223.352 62.5C225.062 63.64 226.982 64.6 229.112 65.38C231.242 66.13 233.597 66.505 236.177 66.505C238.607 66.505 240.782 66.1 242.702 65.29C244.622 64.48 246.152 63.28 247.292 61.69C248.432 60.07 249.002 58.075 249.002 55.705C249.002 53.635 248.567 51.865 247.697 50.395C246.857 48.925 245.642 47.65 244.052 46.57C242.462 45.46 240.572 44.41 238.382 43.42C236.192 42.4 233.747 41.35 231.047 40.27C229.127 39.46 227.222 38.515 225.332 37.435C223.472 36.355 221.777 35.065 220.247 33.565C218.747 32.065 217.547 30.34 216.647 28.39C215.747 26.41 215.297 24.13 215.297 21.55C215.297 18.76 215.837 16.105 216.917 13.585C218.027 11.035 219.587 8.76999 221.597 6.79C223.607 4.81 225.992 3.25 228.752 2.11C231.542 0.969997 234.647 0.399997 238.067 0.399997C240.857 0.399997 243.572 0.804996 246.212 1.61499C248.852 2.425 251.252 3.475 253.412 4.765C255.602 6.055 257.387 7.435 258.767 8.905L253.637 17.86C252.497 16.69 251.132 15.595 249.542 14.575C247.982 13.525 246.242 12.685 244.322 12.055C242.402 11.425 240.392 11.11 238.292 11.11C235.832 11.11 233.747 11.59 232.037 12.55C230.327 13.51 229.007 14.77 228.077 16.33C227.177 17.86 226.727 19.525 226.727 21.325C226.727 22.885 227.042 24.22 227.672 25.33C228.332 26.41 229.232 27.34 230.372 28.12C231.512 28.9 232.817 29.62 234.287 30.28C235.787 30.91 237.362 31.54 239.012 32.17C242.282 33.49 245.297 34.84 248.057 36.22C250.847 37.57 253.262 39.115 255.302 40.855C257.342 42.565 258.917 44.605 260.027 46.975C261.167 49.315 261.737 52.135 261.737 55.435C261.737 60.055 260.627 64.015 258.407 67.315C256.217 70.615 253.172 73.135 249.272 74.875C245.402 76.585 240.932 77.44 235.862 77.44Z" fill="#18182D" fill-opacity="0.64"/>
</svg>
