<svg width="451" height="105" viewBox="0 0 451 105" fill="none" xmlns="http://www.w3.org/2000/svg">
<path d="M175 37L163.826 100.352H150.169L151.544 92.7647C148.983 95.7126 145.809 98.0658 142.245 99.6604C138.68 101.255 134.811 102.052 130.907 101.997C116.713 101.997 107.72 92.2612 110.505 75.9111L117.217 37H131.176L124.465 74.501C122.82 84.2708 127.25 89.206 136.109 89.206C144.967 89.206 152.585 84.4051 155.101 72.6209L161.376 37H175Z" fill="#7B10F4"/>
<path d="M246.383 72.1072C246.115 73.1376 245.478 75.8966 244.842 77.758H194.582C194.851 87.7301 202.054 92.5831 211.671 92.5831C215.051 92.6838 218.41 92.0245 221.497 90.6544C224.584 89.2844 227.319 87.2392 229.496 84.672L239.548 92.1843C236.009 96.3471 231.567 99.661 226.553 101.877C221.539 104.094 216.085 105.155 210.598 104.982C189.858 104.982 178.365 89.6912 181.515 70.7444C182.997 61.8845 187.598 53.8331 194.5 48.021C201.401 42.2088 210.157 39.0125 219.21 39C238.04 39 249.901 53.7919 246.383 72.1072ZM233.483 66.5893C233.483 55.8195 226.782 51.2989 218.171 51.2989C213.386 51.255 208.709 52.709 204.805 55.4541C200.901 58.1993 197.969 62.0957 196.425 66.5893H233.483Z" fill="#7B10F4"/>
<path d="M332 12L315.795 103.355H302.247L303.642 95.8558C300.598 98.8842 296.964 101.257 292.966 102.826C288.968 104.396 284.691 105.129 280.398 104.981C261.603 104.981 251.342 88.3894 254.597 70.6692C257.917 52.0198 272.628 39.1113 290.194 39.1113C294.489 38.9031 298.756 39.9107 302.503 42.0181C306.251 44.1256 309.328 47.2473 311.379 51.0243L316.028 25.539L332 12ZM307.56 74.1867L308.191 70.5364C309.42 58.5239 301.55 52.0198 291.256 52.0198C285.722 52.0326 280.374 54.0181 276.174 57.6191C271.974 61.2202 269.198 66.2006 268.344 71.6647C266.318 83.3123 273.325 92.0728 284.748 92.0728C289.999 92.0515 295.094 90.2812 299.225 87.0418C303.357 83.8024 306.29 79.2788 307.56 74.1867Z" fill="#7B10F4"/>
<path d="M333.699 70.3894C335.347 61.4825 340.093 53.4456 347.098 47.7014C354.103 41.9573 362.914 38.8763 371.973 39.0038C390.561 39.0038 402.731 54.2976 399.473 73.2487C397.946 82.0847 393.364 90.1041 386.527 95.9071C379.69 101.71 371.032 104.928 362.063 105C342.079 105 329.875 89.5732 333.699 70.3894ZM386.039 71.7526C388.3 59.318 380.253 52.1698 370.077 52.1698C364.498 52.1545 359.099 54.1434 354.863 57.7744C350.627 61.4053 347.837 66.4367 347 71.952C344.839 84.6193 352.52 91.9005 362.795 91.9005C368.429 91.9032 373.873 89.8629 378.116 86.1578C382.36 82.4528 385.116 77.3346 385.872 71.7526H386.039Z" fill="#7B10F4"/>
<path d="M427.905 83.8878C426.509 92.0523 432.158 91.9196 442.194 91.289L439.968 103.436C420.395 105.959 411.356 100.117 414.247 83.8878L419.531 54.0175H408L410.359 40.9742H421.923L424.283 27.433L440.566 12L435.315 40.9742H451L448.607 54.0175H433.321L427.905 83.8878Z" fill="#7B10F4"/>
<path d="M85.6397 64.486L79 103H92.2795L98.789 64.8494L108 12H107.805L92.1818 26.6327L85.6397 64.486Z" fill="#7B10F4"/>
<path d="M45.7975 39.0106C41.4881 38.934 37.2102 39.7632 33.2364 41.4452C29.2626 43.1272 25.6802 45.6252 22.7174 48.7798L30.9603 0L15.7934 14.1222L0 103.341H13.4194L15.1339 93.1735C17.0784 96.9148 20.0476 100.015 23.6888 102.106C27.33 104.197 31.4901 105.191 35.6752 104.97C54.9636 104.97 68.6468 90.05 71.5153 72.7378C74.4827 54.6945 63.5691 39.0106 45.7975 39.0106ZM57.9969 71.608C57.1898 77.2239 54.423 82.3661 50.193 86.1114C45.963 89.8568 40.5469 91.96 34.9169 92.0437C23.8384 92.0437 16.7495 83.7697 18.7278 72.1064C19.659 66.5899 22.4769 61.5759 26.6927 57.9342C30.9084 54.2925 36.2561 52.2529 41.8079 52.1692C53.1171 52.003 60.1071 59.845 57.9969 71.608Z" fill="#7B10F4"/>
</svg>
