<svg width="1020" height="200" viewBox="0 0 1020 200" fill="none" xmlns="http://www.w3.org/2000/svg">
<rect width="1020" height="200" fill="white"/>
<path d="M391 86L379.826 149.352H366.169L367.544 141.765C364.983 144.713 361.809 147.066 358.245 148.66C354.68 150.255 350.811 151.052 346.907 150.997C332.713 150.997 323.72 141.261 326.505 124.911L333.217 86H347.176L340.465 123.501C338.82 133.271 343.25 138.206 352.109 138.206C360.967 138.206 368.585 133.405 371.101 121.621L377.376 86H391Z" fill="#7B10F4"/>
<path d="M462.383 121.107C462.115 122.138 461.478 124.897 460.842 126.758H410.582C410.851 136.73 418.054 141.583 427.671 141.583C431.051 141.684 434.41 141.024 437.497 139.654C440.584 138.284 443.319 136.239 445.496 133.672L455.548 141.184C452.009 145.347 447.567 148.661 442.553 150.877C437.539 153.094 432.085 154.155 426.598 153.982C405.858 153.982 394.365 138.691 397.515 119.744C398.997 110.885 403.598 102.833 410.5 97.021C417.401 91.2088 426.157 88.0125 435.21 88C454.04 88 465.901 102.792 462.383 121.107ZM449.483 115.589C449.483 104.82 442.782 100.299 434.171 100.299C429.386 100.255 424.709 101.709 420.805 104.454C416.901 107.199 413.969 111.096 412.425 115.589H449.483Z" fill="#7B10F4"/>
<path d="M548 61L531.795 152.355H518.247L519.642 144.856C516.598 147.884 512.964 150.257 508.966 151.826C504.968 153.396 500.691 154.129 496.398 153.981C477.603 153.981 467.342 137.389 470.597 119.669C473.917 101.02 488.628 88.1113 506.194 88.1113C510.489 87.9031 514.756 88.9107 518.503 91.0181C522.251 93.1256 525.328 96.2473 527.379 100.024L532.028 74.539L548 61ZM523.56 123.187L524.191 119.536C525.42 107.524 517.55 101.02 507.256 101.02C501.722 101.033 496.374 103.018 492.174 106.619C487.974 110.22 485.198 115.201 484.344 120.665C482.318 132.312 489.325 141.073 500.748 141.073C505.999 141.052 511.094 139.281 515.225 136.042C519.357 132.802 522.29 128.279 523.56 123.187Z" fill="#7B10F4"/>
<path d="M549.699 119.389C551.347 110.482 556.093 102.446 563.098 96.7014C570.103 90.9573 578.914 87.8763 587.973 88.0038C606.561 88.0038 618.731 103.298 615.473 122.249C613.946 131.085 609.364 139.104 602.527 144.907C595.69 150.71 587.032 153.928 578.063 154C558.079 154 545.875 138.573 549.699 119.389ZM602.039 120.753C604.3 108.318 596.253 101.17 586.077 101.17C580.498 101.154 575.099 103.143 570.863 106.774C566.627 110.405 563.837 115.437 563 120.952C560.839 133.619 568.52 140.901 578.795 140.901C584.429 140.903 589.873 138.863 594.116 135.158C598.36 131.453 601.116 126.335 601.872 120.753H602.039Z" fill="#7B10F4"/>
<path d="M643.905 132.888C642.509 141.052 648.158 140.92 658.194 140.289L655.968 152.436C636.395 154.959 627.356 149.117 630.247 132.888L635.531 103.018H624L626.359 89.9742H637.923L640.283 76.433L656.566 61L651.315 89.9742H667L664.607 103.018H649.321L643.905 132.888Z" fill="#7B10F4"/>
<path d="M301.64 113.486L295 152H308.279L314.789 113.849L324 61H323.805L308.182 75.6327L301.64 113.486Z" fill="#7B10F4"/>
<path d="M261.797 88.0106C257.488 87.934 253.21 88.7632 249.236 90.4452C245.263 92.1272 241.68 94.6252 238.717 97.7798L246.96 49L231.793 63.1222L216 152.341H229.419L231.134 142.173C233.078 145.915 236.048 149.015 239.689 151.106C243.33 153.197 247.49 154.191 251.675 153.97C270.964 153.97 284.647 139.05 287.515 121.738C290.483 103.695 279.569 88.0106 261.797 88.0106ZM273.997 120.608C273.19 126.224 270.423 131.366 266.193 135.111C261.963 138.857 256.547 140.96 250.917 141.044C239.838 141.044 232.75 132.77 234.728 121.106C235.659 115.59 238.477 110.576 242.693 106.934C246.908 103.293 252.256 101.253 257.808 101.169C269.117 101.003 276.107 108.845 273.997 120.608Z" fill="#7B10F4"/>
<path d="M50.0373 99.6411C49.7415 106.944 51.2079 114.21 54.3125 120.826C57.4172 127.442 62.0687 133.212 67.8739 137.65C73.6791 142.087 80.4671 145.061 87.6639 146.32C94.8608 147.579 102.255 147.085 109.221 144.881C116.187 142.677 122.52 138.828 127.684 133.658C132.848 128.489 136.692 122.151 138.891 115.181C141.09 108.211 141.578 100.814 140.315 93.6159C139.052 86.4174 136.075 79.629 131.635 73.8248L98.266 104.541C97.6612 105.111 96.9001 105.488 96.0801 105.622C95.2602 105.757 94.4187 105.644 93.6634 105.298C92.9 104.953 92.2589 104.386 91.8245 103.669C91.3902 102.953 91.1832 102.122 91.2306 101.285L93.0388 56C82.4573 56.6038 72.4153 60.8708 64.6341 68.0696C60.231 72.1018 56.673 76.9694 54.1671 82.3894C51.6613 87.8094 50.2575 93.6736 50.0373 99.6411V99.6411Z" fill="#7B10F4"/>
<path d="M166.133 56.9769C164.12 53.8666 161.902 50.8943 159.493 48.0798L138.145 67.7995C139.349 69.2996 140.458 70.8741 141.465 72.5136C146.638 80.7389 149.515 90.1985 149.798 99.9107C150.08 109.623 147.759 119.234 143.074 127.746C138.389 136.259 131.511 143.362 123.154 148.32C114.797 153.278 105.265 155.909 95.5482 155.941H93.2906C86.1445 155.651 79.1256 153.956 72.6345 150.954C66.1434 147.952 60.3072 143.7 55.4592 138.443C50.6112 133.185 46.8464 127.024 44.3796 120.312C41.9128 113.599 40.7924 106.467 41.0823 99.3211C41.3722 92.1757 43.0669 85.1573 46.0694 78.6667C49.0719 72.1761 53.3236 66.3404 58.5816 61.4928C63.8396 56.6452 70.001 52.8806 76.7141 50.414C83.4271 47.9474 90.5602 46.8271 97.7063 47.117C98.5847 47.144 99.4331 47.4426 100.135 47.9718C100.836 48.5009 101.357 49.2346 101.624 50.0716C101.823 50.6355 101.891 51.2371 101.823 51.8311L100.23 91.4365L153.882 41.8385C138.59 26.8557 118.124 18.3242 96.7166 18.0091C75.3097 17.6939 54.6007 25.6193 38.8745 40.1454C27.2144 50.9038 18.861 64.7612 14.7924 80.0951C10.7237 95.4289 11.1081 111.604 15.9007 126.728C20.6933 141.851 29.6956 155.296 41.8536 165.488C54.0116 175.681 68.822 182.199 84.5506 184.279C100.279 186.359 116.275 183.916 130.665 177.235C145.055 170.554 157.244 159.911 165.804 146.554C174.364 133.197 178.941 117.678 178.999 101.813C179.058 85.9492 174.595 70.3966 166.133 56.9769Z" fill="#7B10F4"/>
<path d="M741.845 148V73.75H760.925C766.205 73.75 771.11 74.695 775.64 76.585C780.17 78.475 784.13 81.115 787.52 84.505C790.94 87.865 793.595 91.81 795.485 96.34C797.405 100.84 798.365 105.7 798.365 110.92C798.365 116.14 797.42 121 795.53 125.5C793.64 130 790.985 133.945 787.565 137.335C784.175 140.695 780.2 143.32 775.64 145.21C771.11 147.07 766.205 148 760.925 148H741.845ZM753.635 137.425H759.665C763.385 137.425 766.82 136.765 769.97 135.445C773.15 134.125 775.91 132.265 778.25 129.865C780.62 127.465 782.45 124.66 783.74 121.45C785.06 118.21 785.72 114.685 785.72 110.875C785.72 107.095 785.06 103.585 783.74 100.345C782.45 97.105 780.62 94.3 778.25 91.93C775.91 89.53 773.15 87.67 769.97 86.35C766.82 85 763.385 84.325 759.665 84.325H753.635V137.425ZM842.604 149.44C837.414 149.44 832.554 148.45 828.024 146.47C823.494 144.49 819.519 141.745 816.099 138.235C812.679 134.695 809.994 130.6 808.044 125.95C806.124 121.27 805.164 116.26 805.164 110.92C805.164 105.55 806.124 100.54 808.044 95.89C809.994 91.24 812.679 87.16 816.099 83.65C819.519 80.11 823.494 77.35 828.024 75.37C832.554 73.39 837.414 72.4 842.604 72.4C847.794 72.4 852.654 73.39 857.184 75.37C861.714 77.35 865.689 80.11 869.109 83.65C872.529 87.16 875.199 91.24 877.119 95.89C879.069 100.54 880.044 105.55 880.044 110.92C880.044 116.26 879.069 121.27 877.119 125.95C875.199 130.6 872.529 134.695 869.109 138.235C865.689 141.745 861.714 144.49 857.184 146.47C852.654 148.45 847.794 149.44 842.604 149.44ZM842.604 138.1C846.144 138.1 849.414 137.425 852.414 136.075C855.444 134.695 858.069 132.79 860.289 130.36C862.539 127.9 864.279 125.02 865.509 121.72C866.739 118.42 867.354 114.82 867.354 110.92C867.354 107.02 866.739 103.42 865.509 100.12C864.279 96.82 862.539 93.955 860.289 91.525C858.069 89.065 855.444 87.16 852.414 85.81C849.414 84.43 846.144 83.74 842.604 83.74C839.094 83.74 835.824 84.43 832.794 85.81C829.794 87.16 827.169 89.065 824.919 91.525C822.699 93.955 820.974 96.82 819.744 100.12C818.514 103.42 817.899 107.02 817.899 110.92C817.899 114.82 818.514 118.42 819.744 121.72C820.974 125.02 822.699 127.9 824.919 130.36C827.169 132.79 829.794 134.695 832.794 136.075C835.824 137.425 839.094 138.1 842.604 138.1ZM925.266 149.44C919.656 149.44 914.421 148.465 909.561 146.515C904.701 144.535 900.426 141.79 896.736 138.28C893.076 134.77 890.211 130.69 888.141 126.04C886.071 121.36 885.036 116.32 885.036 110.92C885.036 105.55 886.071 100.525 888.141 95.845C890.241 91.165 893.121 87.07 896.781 83.56C900.441 80.05 904.686 77.32 909.516 75.37C914.376 73.39 919.596 72.4 925.176 72.4C929.766 72.4 934.116 73.06 938.226 74.38C942.336 75.7 945.891 77.455 948.891 79.645L943.716 89.635C941.466 87.835 938.796 86.44 935.706 85.45C932.616 84.46 929.361 83.965 925.941 83.965C921.891 83.965 918.156 84.655 914.736 86.035C911.316 87.415 908.331 89.335 905.781 91.795C903.261 94.225 901.311 97.075 899.931 100.345C898.551 103.615 897.861 107.14 897.861 110.92C897.861 114.7 898.551 118.225 899.931 121.495C901.311 124.765 903.261 127.63 905.781 130.09C908.331 132.52 911.316 134.425 914.736 135.805C918.156 137.185 921.891 137.875 925.941 137.875C929.361 137.875 932.616 137.38 935.706 136.39C938.796 135.4 941.466 134.005 943.716 132.205L948.891 142.195C945.981 144.325 942.471 146.065 938.361 147.415C934.281 148.765 929.916 149.44 925.266 149.44ZM976.862 149.44C973.292 149.44 970.052 148.99 967.142 148.09C964.232 147.19 961.667 146.08 959.447 144.76C957.257 143.41 955.412 142.06 953.912 140.71C952.412 139.36 951.272 138.25 950.492 137.38L956.702 127.84C957.542 128.71 958.592 129.745 959.852 130.945C961.142 132.145 962.642 133.33 964.352 134.5C966.062 135.64 967.982 136.6 970.112 137.38C972.242 138.13 974.597 138.505 977.177 138.505C979.607 138.505 981.782 138.1 983.702 137.29C985.622 136.48 987.152 135.28 988.292 133.69C989.432 132.07 990.002 130.075 990.002 127.705C990.002 125.635 989.567 123.865 988.697 122.395C987.857 120.925 986.642 119.65 985.052 118.57C983.462 117.46 981.572 116.41 979.382 115.42C977.192 114.4 974.747 113.35 972.047 112.27C970.127 111.46 968.222 110.515 966.332 109.435C964.472 108.355 962.777 107.065 961.247 105.565C959.747 104.065 958.547 102.34 957.647 100.39C956.747 98.41 956.297 96.13 956.297 93.55C956.297 90.76 956.837 88.105 957.917 85.585C959.027 83.035 960.587 80.77 962.597 78.79C964.607 76.81 966.992 75.25 969.752 74.11C972.542 72.97 975.647 72.4 979.067 72.4C981.857 72.4 984.572 72.805 987.212 73.615C989.852 74.425 992.252 75.475 994.412 76.765C996.602 78.055 998.387 79.435 999.767 80.905L994.637 89.86C993.497 88.69 992.132 87.595 990.542 86.575C988.982 85.525 987.242 84.685 985.322 84.055C983.402 83.425 981.392 83.11 979.292 83.11C976.832 83.11 974.747 83.59 973.037 84.55C971.327 85.51 970.007 86.77 969.077 88.33C968.177 89.86 967.727 91.525 967.727 93.325C967.727 94.885 968.042 96.22 968.672 97.33C969.332 98.41 970.232 99.34 971.372 100.12C972.512 100.9 973.817 101.62 975.287 102.28C976.787 102.91 978.362 103.54 980.012 104.17C983.282 105.49 986.297 106.84 989.057 108.22C991.847 109.57 994.262 111.115 996.302 112.855C998.342 114.565 999.917 116.605 1001.03 118.975C1002.17 121.315 1002.74 124.135 1002.74 127.435C1002.74 132.055 1001.63 136.015 999.407 139.315C997.217 142.615 994.172 145.135 990.272 146.875C986.402 148.585 981.932 149.44 976.862 149.44Z" fill="#18182D" fill-opacity="0.64"/>
</svg>
