<svg width="997" height="167" viewBox="0 0 997 167" fill="none" xmlns="http://www.w3.org/2000/svg">
<path d="M379 68L367.826 131.352H354.169L355.544 123.765C352.983 126.713 349.809 129.066 346.245 130.66C342.68 132.255 338.811 133.052 334.907 132.997C320.713 132.997 311.72 123.261 314.505 106.911L321.217 68H335.176L328.465 105.501C326.82 115.271 331.25 120.206 340.109 120.206C348.967 120.206 356.585 115.405 359.101 103.621L365.376 68H379Z" fill="#7B10F4"/>
<path d="M450.383 103.107C450.115 104.138 449.478 106.897 448.842 108.758H398.582C398.851 118.73 406.054 123.583 415.671 123.583C419.051 123.684 422.41 123.024 425.497 121.654C428.584 120.284 431.319 118.239 433.496 115.672L443.548 123.184C440.009 127.347 435.567 130.661 430.553 132.877C425.539 135.094 420.085 136.155 414.598 135.982C393.858 135.982 382.365 120.691 385.515 101.744C386.997 92.8845 391.598 84.8331 398.5 79.021C405.401 73.2088 414.157 70.0125 423.21 70C442.04 70 453.901 84.7919 450.383 103.107ZM437.483 97.5893C437.483 86.8195 430.782 82.2989 422.171 82.2989C417.386 82.255 412.709 83.709 408.805 86.4541C404.901 89.1993 401.969 93.0957 400.425 97.5893H437.483Z" fill="#7B10F4"/>
<path d="M536 43L519.795 134.355H506.247L507.642 126.856C504.598 129.884 500.964 132.257 496.966 133.826C492.968 135.396 488.691 136.129 484.398 135.981C465.603 135.981 455.342 119.389 458.597 101.669C461.917 83.0198 476.628 70.1113 494.194 70.1113C498.489 69.9031 502.756 70.9107 506.503 73.0181C510.251 75.1256 513.328 78.2473 515.379 82.0243L520.028 56.539L536 43ZM511.56 105.187L512.191 101.536C513.42 89.5239 505.55 83.0198 495.256 83.0198C489.722 83.0326 484.374 85.0181 480.174 88.6191C475.974 92.2202 473.198 97.2006 472.344 102.665C470.318 114.312 477.325 123.073 488.748 123.073C493.999 123.052 499.094 121.281 503.225 118.042C507.357 114.802 510.29 110.279 511.56 105.187Z" fill="#7B10F4"/>
<path d="M537.699 101.389C539.347 92.4825 544.093 84.4456 551.098 78.7014C558.103 72.9573 566.914 69.8763 575.973 70.0038C594.561 70.0038 606.731 85.2976 603.473 104.249C601.946 113.085 597.364 121.104 590.527 126.907C583.69 132.71 575.032 135.928 566.063 136C546.079 136 533.875 120.573 537.699 101.389ZM590.039 102.753C592.3 90.318 584.253 83.1698 574.077 83.1698C568.498 83.1545 563.099 85.1434 558.863 88.7744C554.627 92.4053 551.837 97.4367 551 102.952C548.839 115.619 556.52 122.901 566.795 122.901C572.429 122.903 577.873 120.863 582.116 117.158C586.36 113.453 589.116 108.335 589.872 102.753H590.039Z" fill="#7B10F4"/>
<path d="M631.905 114.888C630.509 123.052 636.158 122.92 646.194 122.289L643.968 134.436C624.395 136.959 615.356 131.117 618.247 114.888L623.531 85.0175H612L614.359 71.9742H625.923L628.283 58.433L644.566 43L639.315 71.9742H655L652.607 85.0175H637.321L631.905 114.888Z" fill="#7B10F4"/>
<path d="M289.64 95.486L283 134H296.279L302.789 95.8494L312 43H311.805L296.182 57.6327L289.64 95.486Z" fill="#7B10F4"/>
<path d="M249.797 70.0106C245.488 69.934 241.21 70.7632 237.236 72.4452C233.263 74.1272 229.68 76.6252 226.717 79.7798L234.96 31L219.793 45.1222L204 134.341H217.419L219.134 124.173C221.078 127.915 224.048 131.015 227.689 133.106C231.33 135.197 235.49 136.191 239.675 135.97C258.964 135.97 272.647 121.05 275.515 103.738C278.483 85.6945 267.569 70.0106 249.797 70.0106ZM261.997 102.608C261.19 108.224 258.423 113.366 254.193 117.111C249.963 120.857 244.547 122.96 238.917 123.044C227.838 123.044 220.75 114.77 222.728 103.106C223.659 97.5899 226.477 92.5759 230.693 88.9342C234.908 85.2925 240.256 83.2529 245.808 83.1692C257.117 83.003 264.107 90.845 261.997 102.608Z" fill="#7B10F4"/>
<path d="M38.0373 81.6411C37.7415 88.9437 39.2079 96.2101 42.3125 102.826C45.4172 109.442 50.0687 115.212 55.8739 119.65C61.6791 124.087 68.4671 127.061 75.6639 128.32C82.8608 129.579 90.2548 129.085 97.2207 126.881C104.187 124.677 110.52 120.828 115.684 115.658C120.848 110.489 124.692 104.151 126.891 97.1811C129.09 90.2113 129.578 82.8144 128.315 75.6159C127.052 68.4174 124.075 61.629 119.635 55.8248L86.266 86.5413C85.6612 87.1112 84.9001 87.4876 84.0801 87.6224C83.2602 87.7571 82.4187 87.6441 81.6634 87.2977C80.9 86.9533 80.2589 86.3855 79.8245 85.6693C79.3902 84.953 79.1832 84.1219 79.2306 83.2855L81.0388 38C70.4573 38.6038 60.4153 42.8708 52.6341 50.0696C48.231 54.1018 44.673 58.9694 42.1671 64.3894C39.6613 69.8094 38.2575 75.6736 38.0373 81.6411V81.6411Z" fill="#7B10F4"/>
<path d="M154.133 38.9769C152.12 35.8666 149.902 32.8943 147.493 30.0798L126.145 49.7995C127.349 51.2996 128.458 52.8741 129.465 54.5136C134.638 62.7389 137.515 72.1985 137.798 81.9107C138.08 91.6229 135.759 101.234 131.074 109.746C126.389 118.259 119.511 125.362 111.154 130.32C102.797 135.278 93.2653 137.909 83.5482 137.941H81.2906C74.1445 137.651 67.1256 135.956 60.6345 132.954C54.1434 129.952 48.3072 125.7 43.4592 120.443C38.6112 115.185 34.8464 109.024 32.3796 102.312C29.9128 95.5992 28.7924 88.4666 29.0823 81.3211C29.3722 74.1757 31.0669 67.1573 34.0694 60.6667C37.0719 54.1761 41.3236 48.3404 46.5816 43.4928C51.8396 38.6452 58.001 34.8806 64.7141 32.414C71.4271 29.9474 78.5602 28.8271 85.7063 29.117C86.5847 29.144 87.4331 29.4426 88.1347 29.9718C88.8363 30.5009 89.3566 31.2346 89.624 32.0716C89.8226 32.6355 89.8908 33.2371 89.8232 33.8311L88.2295 73.4365L141.882 23.8385C126.59 8.85574 106.124 0.324197 84.7166 0.00905074C63.3097 -0.306096 42.6007 7.61927 26.8745 22.1454C15.2144 32.9038 6.86104 46.7612 2.79236 62.0951C-1.27631 77.4289 -0.891852 93.6045 3.90073 108.728C8.69331 123.851 17.6956 137.296 29.8536 147.488C42.0116 157.681 56.822 164.199 72.5506 166.279C88.2793 168.359 104.275 165.916 118.665 159.235C133.055 152.554 145.244 141.911 153.804 128.554C162.364 115.197 166.941 99.6777 166.999 83.8134C167.058 67.9492 162.595 52.3966 154.133 38.9769Z" fill="#7B10F4"/>
<path d="M729.845 130V55.75H748.925C754.205 55.75 759.11 56.695 763.64 58.585C768.17 60.475 772.13 63.115 775.52 66.505C778.94 69.865 781.595 73.81 783.485 78.34C785.405 82.84 786.365 87.7 786.365 92.92C786.365 98.14 785.42 103 783.53 107.5C781.64 112 778.985 115.945 775.565 119.335C772.175 122.695 768.2 125.32 763.64 127.21C759.11 129.07 754.205 130 748.925 130H729.845ZM741.635 119.425H747.665C751.385 119.425 754.82 118.765 757.97 117.445C761.15 116.125 763.91 114.265 766.25 111.865C768.62 109.465 770.45 106.66 771.74 103.45C773.06 100.21 773.72 96.685 773.72 92.875C773.72 89.095 773.06 85.585 771.74 82.345C770.45 79.105 768.62 76.3 766.25 73.93C763.91 71.53 761.15 69.67 757.97 68.35C754.82 67 751.385 66.325 747.665 66.325H741.635V119.425ZM830.604 131.44C825.414 131.44 820.554 130.45 816.024 128.47C811.494 126.49 807.519 123.745 804.099 120.235C800.679 116.695 797.994 112.6 796.044 107.95C794.124 103.27 793.164 98.26 793.164 92.92C793.164 87.55 794.124 82.54 796.044 77.89C797.994 73.24 800.679 69.16 804.099 65.65C807.519 62.11 811.494 59.35 816.024 57.37C820.554 55.39 825.414 54.4 830.604 54.4C835.794 54.4 840.654 55.39 845.184 57.37C849.714 59.35 853.689 62.11 857.109 65.65C860.529 69.16 863.199 73.24 865.119 77.89C867.069 82.54 868.044 87.55 868.044 92.92C868.044 98.26 867.069 103.27 865.119 107.95C863.199 112.6 860.529 116.695 857.109 120.235C853.689 123.745 849.714 126.49 845.184 128.47C840.654 130.45 835.794 131.44 830.604 131.44ZM830.604 120.1C834.144 120.1 837.414 119.425 840.414 118.075C843.444 116.695 846.069 114.79 848.289 112.36C850.539 109.9 852.279 107.02 853.509 103.72C854.739 100.42 855.354 96.82 855.354 92.92C855.354 89.02 854.739 85.42 853.509 82.12C852.279 78.82 850.539 75.955 848.289 73.525C846.069 71.065 843.444 69.16 840.414 67.81C837.414 66.43 834.144 65.74 830.604 65.74C827.094 65.74 823.824 66.43 820.794 67.81C817.794 69.16 815.169 71.065 812.919 73.525C810.699 75.955 808.974 78.82 807.744 82.12C806.514 85.42 805.899 89.02 805.899 92.92C805.899 96.82 806.514 100.42 807.744 103.72C808.974 107.02 810.699 109.9 812.919 112.36C815.169 114.79 817.794 116.695 820.794 118.075C823.824 119.425 827.094 120.1 830.604 120.1ZM913.266 131.44C907.656 131.44 902.421 130.465 897.561 128.515C892.701 126.535 888.426 123.79 884.736 120.28C881.076 116.77 878.211 112.69 876.141 108.04C874.071 103.36 873.036 98.32 873.036 92.92C873.036 87.55 874.071 82.525 876.141 77.845C878.241 73.165 881.121 69.07 884.781 65.56C888.441 62.05 892.686 59.32 897.516 57.37C902.376 55.39 907.596 54.4 913.176 54.4C917.766 54.4 922.116 55.06 926.226 56.38C930.336 57.7 933.891 59.455 936.891 61.645L931.716 71.635C929.466 69.835 926.796 68.44 923.706 67.45C920.616 66.46 917.361 65.965 913.941 65.965C909.891 65.965 906.156 66.655 902.736 68.035C899.316 69.415 896.331 71.335 893.781 73.795C891.261 76.225 889.311 79.075 887.931 82.345C886.551 85.615 885.861 89.14 885.861 92.92C885.861 96.7 886.551 100.225 887.931 103.495C889.311 106.765 891.261 109.63 893.781 112.09C896.331 114.52 899.316 116.425 902.736 117.805C906.156 119.185 909.891 119.875 913.941 119.875C917.361 119.875 920.616 119.38 923.706 118.39C926.796 117.4 929.466 116.005 931.716 114.205L936.891 124.195C933.981 126.325 930.471 128.065 926.361 129.415C922.281 130.765 917.916 131.44 913.266 131.44ZM964.862 131.44C961.292 131.44 958.052 130.99 955.142 130.09C952.232 129.19 949.667 128.08 947.447 126.76C945.257 125.41 943.412 124.06 941.912 122.71C940.412 121.36 939.272 120.25 938.492 119.38L944.702 109.84C945.542 110.71 946.592 111.745 947.852 112.945C949.142 114.145 950.642 115.33 952.352 116.5C954.062 117.64 955.982 118.6 958.112 119.38C960.242 120.13 962.597 120.505 965.177 120.505C967.607 120.505 969.782 120.1 971.702 119.29C973.622 118.48 975.152 117.28 976.292 115.69C977.432 114.07 978.002 112.075 978.002 109.705C978.002 107.635 977.567 105.865 976.697 104.395C975.857 102.925 974.642 101.65 973.052 100.57C971.462 99.46 969.572 98.41 967.382 97.42C965.192 96.4 962.747 95.35 960.047 94.27C958.127 93.46 956.222 92.515 954.332 91.435C952.472 90.355 950.777 89.065 949.247 87.565C947.747 86.065 946.547 84.34 945.647 82.39C944.747 80.41 944.297 78.13 944.297 75.55C944.297 72.76 944.837 70.105 945.917 67.585C947.027 65.035 948.587 62.77 950.597 60.79C952.607 58.81 954.992 57.25 957.752 56.11C960.542 54.97 963.647 54.4 967.067 54.4C969.857 54.4 972.572 54.805 975.212 55.615C977.852 56.425 980.252 57.475 982.412 58.765C984.602 60.055 986.387 61.435 987.767 62.905L982.637 71.86C981.497 70.69 980.132 69.595 978.542 68.575C976.982 67.525 975.242 66.685 973.322 66.055C971.402 65.425 969.392 65.11 967.292 65.11C964.832 65.11 962.747 65.59 961.037 66.55C959.327 67.51 958.007 68.77 957.077 70.33C956.177 71.86 955.727 73.525 955.727 75.325C955.727 76.885 956.042 78.22 956.672 79.33C957.332 80.41 958.232 81.34 959.372 82.12C960.512 82.9 961.817 83.62 963.287 84.28C964.787 84.91 966.362 85.54 968.012 86.17C971.282 87.49 974.297 88.84 977.057 90.22C979.847 91.57 982.262 93.115 984.302 94.855C986.342 96.565 987.917 98.605 989.027 100.975C990.167 103.315 990.737 106.135 990.737 109.435C990.737 114.055 989.627 118.015 987.407 121.315C985.217 124.615 982.172 127.135 978.272 128.875C974.402 130.585 969.932 131.44 964.862 131.44Z" fill="#18182D" fill-opacity="0.64"/>
</svg>
