<svg width="1937" height="248" viewBox="0 0 1937 248" fill="none" xmlns="http://www.w3.org/2000/svg">
<path d="M1457 165.393V82.507H1478.36C1484.26 82.507 1489.75 83.5619 1494.82 85.6717C1499.89 87.7815 1504.33 90.7286 1508.12 94.5128C1511.95 98.2636 1514.92 102.667 1517.04 107.724C1519.18 112.748 1520.26 118.173 1520.26 124C1520.26 129.827 1519.2 135.252 1517.09 140.276C1514.97 145.299 1512 149.703 1508.17 153.487C1504.38 157.238 1499.93 160.168 1494.82 162.278C1489.75 164.354 1484.26 165.393 1478.36 165.393H1457ZM1470.2 153.588H1476.94C1481.11 153.588 1484.95 152.851 1488.48 151.377C1492.04 149.904 1495.13 147.827 1497.75 145.148C1500.4 142.469 1502.45 139.338 1503.89 135.755C1505.37 132.138 1506.11 128.203 1506.11 123.95C1506.11 119.73 1505.37 115.812 1503.89 112.195C1502.45 108.578 1500.4 105.447 1497.75 102.801C1495.13 100.122 1492.04 98.0459 1488.48 96.5724C1484.95 95.0654 1481.11 94.3119 1476.94 94.3119H1470.2V153.588ZM1569.77 167C1563.96 167 1558.52 165.895 1553.45 163.685C1548.38 161.474 1543.94 158.41 1540.11 154.492C1536.28 150.54 1533.27 145.969 1531.09 140.778C1528.94 135.554 1527.87 129.961 1527.87 124C1527.87 118.005 1528.94 112.413 1531.09 107.222C1533.27 102.031 1536.28 97.4766 1540.11 93.5584C1543.94 89.6067 1548.38 86.5257 1553.45 84.3154C1558.52 82.1051 1563.96 81 1569.77 81C1575.58 81 1581.02 82.1051 1586.09 84.3154C1591.16 86.5257 1595.61 89.6067 1599.44 93.5584C1603.27 97.4766 1606.25 102.031 1608.4 107.222C1610.59 112.413 1611.68 118.005 1611.68 124C1611.68 129.961 1610.59 135.554 1608.4 140.778C1606.25 145.969 1603.27 150.54 1599.44 154.492C1595.61 158.41 1591.16 161.474 1586.09 163.685C1581.02 165.895 1575.58 167 1569.77 167ZM1569.77 154.341C1573.74 154.341 1577.4 153.588 1580.75 152.081C1584.14 150.54 1587.08 148.414 1589.57 145.701C1592.09 142.955 1594.03 139.74 1595.41 136.056C1596.79 132.372 1597.47 128.354 1597.47 124C1597.47 119.646 1596.79 115.628 1595.41 111.944C1594.03 108.26 1592.09 105.062 1589.57 102.349C1587.08 99.6032 1584.14 97.4766 1580.75 95.9696C1577.4 94.4291 1573.74 93.6589 1569.77 93.6589C1565.84 93.6589 1562.18 94.4291 1558.79 95.9696C1555.44 97.4766 1552.5 99.6032 1549.98 102.349C1547.49 105.062 1545.56 108.26 1544.19 111.944C1542.81 115.628 1542.12 119.646 1542.12 124C1542.12 128.354 1542.81 132.372 1544.19 136.056C1545.56 139.74 1547.49 142.955 1549.98 145.701C1552.5 148.414 1555.44 150.54 1558.79 152.081C1562.18 153.588 1565.84 154.341 1569.77 154.341ZM1662.29 167C1656.01 167 1650.15 165.912 1644.71 163.735C1639.27 161.525 1634.49 158.46 1630.36 154.542C1626.26 150.624 1623.06 146.069 1620.74 140.879C1618.42 135.654 1617.26 130.028 1617.26 124C1617.26 118.005 1618.42 112.396 1620.74 107.172C1623.09 101.947 1626.31 97.3762 1630.41 93.4579C1634.51 89.5397 1639.26 86.4922 1644.66 84.3154C1650.1 82.1051 1655.95 81 1662.19 81C1667.33 81 1672.2 81.7368 1676.8 83.2103C1681.4 84.6838 1685.38 86.6429 1688.73 89.0876L1682.94 100.239C1680.42 98.2301 1677.43 96.6729 1673.98 95.5678C1670.52 94.4626 1666.87 93.91 1663.05 93.91C1658.51 93.91 1654.33 94.6803 1650.51 96.2208C1646.68 97.7613 1643.34 99.9046 1640.48 102.651C1637.66 105.363 1635.48 108.545 1633.94 112.195C1632.39 115.845 1631.62 119.78 1631.62 124C1631.62 128.22 1632.39 132.155 1633.94 135.805C1635.48 139.455 1637.66 142.653 1640.48 145.4C1643.34 148.112 1646.68 150.239 1650.51 151.779C1654.33 153.32 1658.51 154.09 1663.05 154.09C1666.87 154.09 1670.52 153.537 1673.98 152.432C1677.43 151.327 1680.42 149.77 1682.94 147.761L1688.73 158.912C1685.48 161.29 1681.55 163.232 1676.95 164.739C1672.38 166.246 1667.5 167 1662.29 167ZM1720.04 167C1716.04 167 1712.42 166.498 1709.16 165.493C1705.9 164.488 1703.03 163.249 1700.55 161.776C1698.1 160.269 1696.03 158.762 1694.35 157.255C1692.67 155.748 1691.4 154.509 1690.53 153.537L1697.48 142.888C1698.42 143.859 1699.59 145.014 1701 146.354C1702.45 147.694 1704.12 149.016 1706.04 150.322C1707.95 151.595 1710.1 152.667 1712.48 153.537C1714.87 154.375 1717.5 154.793 1720.39 154.793C1723.11 154.793 1725.55 154.341 1727.7 153.437C1729.84 152.533 1731.56 151.193 1732.83 149.418C1734.11 147.61 1734.75 145.383 1734.75 142.737C1734.75 140.426 1734.26 138.451 1733.29 136.81C1732.35 135.169 1730.99 133.745 1729.21 132.54C1727.43 131.301 1725.31 130.129 1722.86 129.023C1720.41 127.885 1717.67 126.713 1714.65 125.507C1712.5 124.603 1710.37 123.548 1708.25 122.342C1706.17 121.137 1704.28 119.697 1702.56 118.022C1700.88 116.348 1699.54 114.422 1698.53 112.245C1697.53 110.035 1697.02 107.49 1697.02 104.61C1697.02 101.495 1697.63 98.5315 1698.84 95.7185C1700.08 92.8719 1701.82 90.3435 1704.07 88.1332C1706.32 85.9229 1708.99 84.1815 1712.08 82.9089C1715.2 81.6363 1718.68 81 1722.51 81C1725.63 81 1728.67 81.4521 1731.62 82.3563C1734.58 83.2605 1737.26 84.4326 1739.68 85.8727C1742.13 87.3127 1744.13 88.8532 1745.68 90.4942L1739.93 100.491C1738.66 99.1846 1737.13 97.9622 1735.35 96.8236C1733.6 95.6515 1731.66 94.7138 1729.51 94.0105C1727.36 93.3072 1725.11 92.9556 1722.76 92.9556C1720.01 92.9556 1717.67 93.4914 1715.76 94.5631C1713.84 95.6347 1712.37 97.0413 1711.33 98.7827C1710.32 100.491 1709.82 102.349 1709.82 104.359C1709.82 106.1 1710.17 107.59 1710.87 108.829C1711.61 110.035 1712.62 111.073 1713.9 111.944C1715.17 112.815 1716.63 113.618 1718.28 114.355C1719.96 115.058 1721.72 115.762 1723.57 116.465C1727.23 117.938 1730.6 119.445 1733.69 120.986C1736.81 122.493 1739.51 124.218 1741.8 126.16C1744.08 128.069 1745.84 130.346 1747.09 132.992C1748.36 135.604 1749 138.752 1749 142.436C1749 147.593 1747.76 152.014 1745.27 155.697C1742.82 159.381 1739.41 162.194 1735.05 164.137C1730.72 166.046 1725.71 167 1720.04 167Z" fill="#18182D" fill-opacity="0.64"/>
<path d="M1319.59 95.168C1319.59 98.5476 1322.29 100.485 1327.01 100.485C1334.46 100.485 1337.58 95.5255 1338.07 90.6325H1326.5C1323.35 90.6325 1319.59 91.4186 1319.59 95.168Z" fill="#5A8AC3"/>
<path d="M1365.02 77.2562C1363.12 72.5322 1360.15 68.3053 1356.41 65.0212C1356.01 66.6081 1354.55 67.791 1352.8 67.791C1350.74 67.791 1349.07 66.1575 1349.07 64.1518C1349.07 62.8636 1349.72 61.7518 1350.73 61.1077C1346.96 59.1314 1342.72 58 1338.17 58C1315.76 58 1307.86 77.6603 1307.86 89.9786C1307.86 103.918 1316.06 117.843 1332.18 121.125C1333.11 121.316 1333.55 122.479 1333.01 123.321C1329.15 129.343 1325.83 128.173 1325.83 130.778C1325.83 131.932 1326.98 132.956 1328.79 132.956C1335.69 132.956 1367.27 115.876 1367.27 90.4684C1367.27 85.9623 1366.68 81.3656 1365.03 77.2562H1365.02ZM1343.73 105.358H1338.1L1338.26 100.896C1335.75 104.219 1331.49 106.139 1326.39 106.139C1318.75 106.139 1313.81 101.856 1313.81 95.2268C1313.81 88.5974 1318.35 85.2766 1326.27 85.2766H1338.06V83.3248C1338.06 80.0578 1335.79 76.5656 1329.41 76.5656C1324.37 76.5656 1319.05 79.115 1318.03 79.6268L1317.11 80.0897V73.4481L1317.75 73.2179C1322.09 71.6456 1326 70.8497 1329.35 70.8497C1336.3 70.8497 1343.73 74.3469 1343.73 84.1672V105.358H1343.73ZM1355.74 105.358H1349.96V77.3468H1345.87V71.631H1355.74V105.358H1355.74Z" fill="#5A8AC3"/>
<path d="M1327.65 157.712H1330.6C1332.27 157.712 1333.41 158.875 1333.41 160.296C1333.41 161.319 1332.82 162.194 1331.88 162.637L1333.48 166.048H1332.49L1331 162.87H1328.55V166.048H1327.65V157.712ZM1330.62 162.02C1331.8 162.02 1332.51 161.229 1332.51 160.296C1332.51 159.363 1331.81 158.572 1330.6 158.572H1328.55V162.017H1330.62L1330.62 162.02Z" fill="black"/>
<path d="M1330.27 169.506C1326.42 169.506 1323.29 166.146 1323.29 162.015C1323.29 157.884 1326.42 154.524 1330.27 154.524C1334.12 154.524 1337.25 157.884 1337.25 162.015C1337.25 166.146 1334.12 169.506 1330.27 169.506ZM1330.27 155.608C1326.98 155.608 1324.3 158.484 1324.3 162.015C1324.3 165.546 1326.98 168.422 1330.27 168.422C1333.56 168.422 1336.24 165.546 1336.24 162.015C1336.24 158.484 1333.56 155.608 1330.27 155.608Z" fill="black"/>
<path d="M1016.5 168.654V116.087H1025.48L1025.17 123.525C1028.06 117.897 1032.67 114.961 1038.72 114.961C1041.28 114.961 1043.78 115.458 1046.15 116.437L1046.78 116.694V126.549L1045.5 126.091C1045.39 126.052 1045.26 125.996 1045.06 125.907C1044.11 125.484 1041.59 124.362 1038.63 124.362C1026.3 124.362 1025.35 144.537 1025.35 150.72V168.652H1016.5V168.654Z" fill="black"/>
<path d="M1075.1 169.874C1067.97 169.874 1061.28 167.021 1056.27 161.841C1051.26 156.659 1048.51 149.746 1048.51 142.372C1048.51 134.998 1051.26 128.082 1056.27 122.903C1061.28 117.723 1067.96 114.87 1075.1 114.87C1083.45 114.87 1091.12 118.847 1096.16 125.78L1096.69 126.503L1066.72 158.929C1069.26 160.328 1072.07 161.035 1075.1 161.035C1081.14 161.035 1087.89 158.013 1093.17 152.949L1094.79 151.399V162.995L1094.38 163.306C1090.15 166.482 1082.87 169.874 1075.1 169.874ZM1075.1 123.708C1070.26 123.708 1065.78 125.672 1062.48 129.243C1059.23 132.747 1057.45 137.41 1057.45 142.374C1057.45 146.273 1058.53 150.027 1060.51 153.074L1084.72 126.662C1081.98 124.751 1078.61 123.711 1075.1 123.711V123.708Z" fill="black"/>
<path d="M1098.44 168.654L1131.32 124.832H1102.12V116.09H1148.94L1115.97 159.816H1146.74V168.654H1098.44Z" fill="black"/>
<path d="M1174.66 169.874C1160.05 169.874 1148.15 157.536 1148.15 142.372C1148.15 127.208 1160.05 114.87 1174.66 114.87C1189.28 114.87 1201.26 127.208 1201.26 142.372C1201.26 157.536 1189.33 169.874 1174.66 169.874ZM1174.66 123.708C1169.9 123.708 1165.45 125.672 1162.15 129.243C1158.89 132.762 1157.09 137.425 1157.09 142.374C1157.09 147.324 1158.89 151.986 1162.15 155.506C1165.45 159.074 1169.9 161.04 1174.66 161.04C1184.4 161.04 1192.32 152.667 1192.32 142.377C1192.32 132.086 1184.4 123.713 1174.66 123.713V123.708Z" fill="black"/>
<path d="M1216.45 95.4447H1207.6V168.654H1216.45V95.4447Z" fill="black"/>
<path d="M1221.89 116.09H1231.85L1247.95 152.158L1264.04 116.09H1274.01L1247.95 172.102L1221.89 116.09Z" fill="black"/>
<path d="M1299.18 169.874C1292.04 169.874 1285.35 167.021 1280.34 161.841C1275.34 156.659 1272.58 149.746 1272.58 142.372C1272.58 134.998 1275.34 128.082 1280.34 122.903C1285.35 117.723 1292.04 114.87 1299.18 114.87C1307.52 114.87 1315.2 118.847 1320.23 125.78L1320.76 126.503L1290.8 158.929C1293.34 160.328 1296.15 161.035 1299.18 161.035C1305.21 161.035 1311.97 158.013 1317.25 152.949L1318.86 151.399V162.995L1318.45 163.306C1314.22 166.482 1306.94 169.874 1299.18 169.874ZM1299.18 123.708C1294.34 123.708 1289.86 125.672 1286.55 129.243C1283.31 132.747 1281.52 137.41 1281.52 142.374C1281.52 146.273 1282.6 150.027 1284.58 153.074L1308.79 126.662C1306.05 124.751 1302.68 123.711 1299.18 123.711V123.708Z" fill="black"/>
<g clip-path="url(#clip0_15_559)">
<path d="M508.883 106.552L494.298 195.571H476.391L478.226 184.873C474.879 189.034 470.721 192.356 466.047 194.604C461.373 196.851 456.297 197.97 451.176 197.881C432.605 197.881 420.836 184.295 424.506 161.2L433.459 106.552H451.366L442.76 159.298C440.577 172.884 446.367 179.88 457.978 179.88C469.083 179.88 479.555 173.087 482.845 156.547L490.976 106.552H508.883Z" fill="#7B10F4"/>
<path d="M603.415 151.249C603.067 152.675 602.244 156.581 601.422 159.264H535.426C535.743 173.495 545.202 180.254 557.794 180.254C562.226 180.4 566.632 179.468 570.681 177.527C574.729 175.586 578.317 172.686 581.174 169.046L594.272 179.71C589.632 185.619 583.806 190.324 577.231 193.471C570.656 196.618 563.502 198.126 556.307 197.881C529.13 197.881 514.039 176.178 518.184 149.279C520.122 136.71 526.147 125.285 535.188 117.034C544.23 108.782 555.703 104.238 567.57 104.209C592.468 104.242 608.034 125.266 603.415 151.249ZM586.489 143.403C586.647 128.085 577.852 121.7 566.431 121.7C560.162 121.642 554.035 123.709 548.923 127.605C543.811 131.502 539.974 137.03 537.957 143.403H586.489Z" fill="#7B10F4"/>
<path d="M716.677 65.6935L695.226 195.571H677.32L679.155 184.873C675.145 189.186 670.351 192.567 665.071 194.805C659.792 197.043 654.139 198.09 648.466 197.881C623.599 197.881 609.995 174.106 614.33 149.109C618.791 122.583 638.184 104.242 661.406 104.242C667.095 103.945 672.746 105.382 677.706 108.388C682.666 111.393 686.733 115.843 689.437 121.224L695.543 84.8151L716.677 65.6935ZM684.122 154L684.913 148.837C686.589 131.855 675.959 122.481 662.545 122.481C655.21 122.457 648.111 125.263 642.542 130.388C636.973 135.512 633.305 142.614 632.205 150.399C629.547 166.974 638.817 179.439 653.908 179.439C660.867 179.409 667.618 176.887 673.09 172.273C678.563 167.659 682.445 161.216 684.122 153.966V154Z" fill="#7B10F4"/>
<path d="M719.302 148.735C721.472 136.088 727.749 124.677 737.017 116.53C746.286 108.384 757.945 104.03 769.922 104.242C794.473 104.242 810.576 125.979 806.242 152.845C804.219 165.39 798.157 176.774 789.114 185.011C780.07 193.248 768.62 197.815 756.761 197.915C730.565 197.881 714.494 175.974 719.302 148.735ZM788.462 150.705C791.436 133.112 780.805 122.923 767.423 122.923C760.096 122.982 753.03 125.847 747.496 131.003C741.963 136.158 738.326 143.266 737.241 151.045C734.425 169.046 744.517 179.201 758.121 179.201C765.518 179.134 772.647 176.222 778.214 170.993C783.781 165.765 787.417 158.566 788.462 150.705Z" fill="#7B10F4"/>
<path d="M844.175 167.789C842.34 179.371 849.806 179.201 863.157 178.284L860.342 195.571C834.462 198.968 822.535 190.918 826.363 167.789L833.323 125.062H817.916L821.08 106.552H836.329L839.493 87.3285L861.006 65.3539L854.141 106.552H874.863L871.7 125.062H851.104L844.175 167.789Z" fill="#7B10F4"/>
<path d="M391.16 140.55L382.207 195.571H400.113L408.908 141.093L421.342 65.6255H421.089L400.018 86.5133L391.16 140.55Z" fill="#7B10F4"/>
<path d="M338.61 104.242C332.904 104.173 327.246 105.371 321.993 107.762C316.739 110.152 312.002 113.684 308.08 118.134L319.09 48.9153L298.874 68.92L277.582 195.571H295.489L297.83 181.103C300.418 186.407 304.368 190.804 309.213 193.772C314.058 196.74 319.594 198.154 325.164 197.847C350.886 197.847 369.109 176.653 372.937 152.098C376.733 126.489 362.338 104.242 338.61 104.242ZM355.03 150.535C353.938 158.486 350.256 165.764 344.637 171.075C339.018 176.386 331.827 179.385 324.342 179.54C309.599 179.54 300.139 167.789 302.797 151.045C304.001 143.165 307.754 135.992 313.395 130.787C319.036 125.582 326.205 122.677 333.643 122.583C348.386 122.583 357.688 133.791 355.03 150.535Z" fill="#7B10F4"/>
<path d="M57.5757 120.783C57.1759 131.257 59.1315 141.68 63.2771 151.171C67.4228 160.662 73.6366 168.941 81.393 175.309C89.1494 181.677 98.2202 185.946 107.838 187.755C117.456 189.564 127.339 188.86 136.65 185.702C145.961 182.544 154.426 177.026 161.331 169.613C168.235 162.2 173.375 153.112 176.316 143.116C179.256 133.12 179.911 122.51 178.225 112.185C176.54 101.86 172.562 92.1224 166.63 83.7962L122.116 127.949C121.301 128.775 120.276 129.32 119.171 129.517C118.065 129.713 116.931 129.551 115.912 129.051C114.893 128.552 114.036 127.737 113.45 126.712C112.865 125.687 112.577 124.498 112.625 123.296L115.061 58.3573C99.9574 59.2225 85.6972 66.1025 75.0668 77.6527C64.4365 89.203 58.1999 104.594 57.5757 120.817V120.783Z" fill="#7B10F4"/>
<path d="M211.808 60.1576C209.208 55.7423 206.333 51.5211 203.202 47.523L174.95 75.5772C183.305 86.984 188.503 100.683 189.951 115.11C191.398 129.537 189.038 144.11 183.139 157.166C177.24 170.221 168.04 181.233 156.589 188.943C145.139 196.653 131.899 200.75 118.383 200.768C117.402 200.768 116.421 200.768 115.409 200.768C96.531 200.205 78.6128 191.712 65.5055 177.117C52.3982 162.521 45.1482 142.988 45.314 122.715C45.4798 102.442 53.048 83.0479 66.3919 68.7017C79.7359 54.3555 97.7902 46.2023 116.674 45.9946L121.23 46.1984C122.382 46.2566 123.49 46.691 124.406 47.4436C125.322 48.1962 126.002 49.2312 126.355 50.4099C126.604 51.2076 126.679 52.0555 126.577 52.8893L124.489 109.167L195.578 38.6245C175.424 17.5024 148.514 5.44672 120.353 4.9245C92.192 4.40227 64.9097 15.4529 44.0888 35.8152C23.2679 56.1775 10.4825 84.3119 8.34885 114.461C6.21523 144.611 14.8947 174.496 32.6112 198.001C50.3277 221.507 75.7417 236.855 103.653 240.906C131.564 244.957 159.862 237.404 182.757 219.793C205.651 202.182 221.411 175.844 226.812 146.169C232.212 116.493 226.845 85.7242 211.808 60.1576Z" fill="#7B10F4"/>
</g>
<path d="M948.391 156.51C946.634 156.51 945.161 156.085 943.971 155.235C942.781 154.374 941.88 153.212 941.268 151.75C940.656 150.288 940.35 148.639 940.35 146.803C940.35 144.967 940.65 143.318 941.251 141.856C941.863 140.394 942.758 139.244 943.937 138.405C945.127 137.555 946.589 137.13 948.323 137.13C950.046 137.13 951.53 137.555 952.777 138.405C954.035 139.244 955.004 140.394 955.684 141.856C956.364 143.307 956.704 144.956 956.704 146.803C956.704 148.639 956.364 150.294 955.684 151.767C955.015 153.229 954.058 154.385 952.811 155.235C951.576 156.085 950.102 156.51 948.391 156.51ZM939.755 156V131.52H943.325V142.791H942.917V156H939.755ZM947.898 153.297C949.031 153.297 949.966 153.008 950.703 152.43C951.451 151.852 952.006 151.076 952.369 150.101C952.743 149.115 952.93 148.016 952.93 146.803C952.93 145.602 952.743 144.514 952.369 143.539C952.006 142.564 951.445 141.788 950.686 141.21C949.927 140.632 948.958 140.343 947.779 140.343C946.668 140.343 945.75 140.615 945.025 141.159C944.311 141.703 943.778 142.462 943.427 143.437C943.087 144.412 942.917 145.534 942.917 146.803C942.917 148.072 943.087 149.194 943.427 150.169C943.767 151.144 944.305 151.909 945.042 152.464C945.779 153.019 946.731 153.297 947.898 153.297ZM961.811 164.16L965.364 154.487L965.415 157.343L957.408 137.64H961.114L967.098 152.855H966.01L971.722 137.64H975.326L965.194 164.16H961.811Z" fill="#1D1D1B"/>
<line x1="1404.5" y1="32" x2="1404.5" y2="218" stroke="#D2D2D2"/>
<defs>
<clipPath id="clip0_15_559">
<rect width="866.863" height="237" fill="white" transform="translate(8 5)"/>
</clipPath>
</defs>
</svg>
