<svg width="898" height="200" viewBox="0 0 898 200" fill="none" xmlns="http://www.w3.org/2000/svg">
<rect width="898" height="200" fill="white"/>
<g clip-path="url(#clip0_101_2)">
<path d="M341.435 140.936C341.435 142.325 342.638 143.122 344.737 143.122C348.054 143.122 349.442 141.083 349.66 139.071H344.512C343.109 139.071 341.435 139.394 341.435 140.936Z" fill="#5A8AC3"/>
<path d="M361.65 133.571C360.803 131.628 359.485 129.89 357.82 128.54C357.641 129.192 356.99 129.679 356.211 129.679C355.296 129.679 354.553 129.007 354.553 128.183C354.553 127.653 354.844 127.196 355.293 126.931C353.615 126.118 351.726 125.653 349.703 125.653C339.735 125.653 336.22 133.737 336.22 138.802C336.22 144.533 339.868 150.259 347.038 151.608C347.454 151.687 347.648 152.165 347.408 152.512C345.692 154.988 344.211 154.506 344.211 155.578C344.211 156.052 344.723 156.473 345.53 156.473C348.6 156.473 362.649 149.451 362.649 139.003C362.649 137.151 362.386 135.26 361.65 133.571ZM352.177 145.126H349.671L349.742 143.291C348.628 144.657 346.733 145.447 344.461 145.447C341.061 145.447 338.864 143.686 338.864 140.96C338.864 138.234 340.886 136.869 344.411 136.869H349.655V136.066C349.655 134.723 348.644 133.287 345.807 133.287C343.563 133.287 341.196 134.335 340.744 134.545L340.334 134.736V132.005L340.618 131.91C342.551 131.264 344.287 130.936 345.78 130.936C348.871 130.936 352.175 132.374 352.175 136.412V145.126H352.177ZM357.52 145.126H354.95V133.608H353.131V131.258H357.52V145.126Z" fill="#5A8AC3"/>
<path d="M345.021 166.652H346.333C347.078 166.652 347.584 167.131 347.584 167.715C347.584 168.136 347.323 168.495 346.905 168.677L347.619 170.08H347.176L346.514 168.773H345.422V170.08H345.021V166.652ZM346.344 168.424C346.871 168.424 347.185 168.098 347.185 167.715C347.185 167.331 346.876 167.006 346.333 167.006H345.422V168.423L346.344 168.424Z" fill="black"/>
<path d="M346.19 171.502C344.475 171.502 343.083 170.12 343.083 168.422C343.083 166.723 344.475 165.341 346.19 165.341C347.903 165.341 349.295 166.723 349.295 168.422C349.295 170.12 347.903 171.502 346.19 171.502ZM346.19 165.787C344.725 165.787 343.532 166.97 343.532 168.422C343.532 169.874 344.725 171.056 346.19 171.056C347.653 171.056 348.846 169.874 348.846 168.422C348.846 166.97 347.653 165.787 346.19 165.787Z" fill="black"/>
<path d="M206.591 171.151V149.537H210.586L210.45 152.595C211.737 150.281 213.785 149.074 216.477 149.074C217.616 149.074 218.728 149.278 219.785 149.681L220.061 149.787V153.839L219.494 153.65C219.446 153.634 219.387 153.611 219.299 153.575C218.877 153.401 217.754 152.94 216.438 152.94C210.953 152.94 210.528 161.235 210.528 163.778V171.15L206.591 171.151Z" fill="black"/>
<path d="M232.665 171.653C229.489 171.653 226.513 170.48 224.286 168.35C222.058 166.219 220.831 163.377 220.831 160.345C220.831 157.313 222.058 154.469 224.286 152.339C226.513 150.21 229.489 149.037 232.665 149.037C236.377 149.037 239.792 150.672 242.034 153.523L242.266 153.82L228.935 167.153C230.065 167.728 231.317 168.019 232.665 168.019C235.35 168.019 238.354 166.776 240.704 164.694L241.424 164.057V168.824L241.239 168.952C239.359 170.258 236.118 171.653 232.665 171.653ZM232.665 152.671C230.512 152.671 228.517 153.478 227.047 154.946C225.603 156.387 224.809 158.305 224.809 160.346C224.809 161.949 225.289 163.493 226.171 164.745L236.94 153.885C235.722 153.1 234.222 152.671 232.665 152.671Z" fill="black"/>
<path d="M243.046 171.151L257.677 153.133H244.685V149.538H265.517L250.846 167.517H264.538V171.151H243.046Z" fill="black"/>
<path d="M276.959 171.653C270.456 171.653 265.164 166.58 265.164 160.345C265.164 154.11 270.456 149.037 276.959 149.037C283.463 149.037 288.792 154.11 288.792 160.345C288.792 166.58 283.485 171.653 276.959 171.653ZM276.959 152.671C274.838 152.671 272.86 153.478 271.39 154.946C269.94 156.394 269.142 158.311 269.142 160.346C269.142 162.381 269.94 164.298 271.39 165.745C272.86 167.212 274.838 168.021 276.959 168.021C281.291 168.021 284.815 164.578 284.815 160.347C284.815 156.115 281.291 152.673 276.959 152.673V152.671Z" fill="black"/>
<path d="M295.549 141.049H291.61V171.151H295.549V141.049Z" fill="black"/>
<path d="M297.97 149.538H302.403L309.564 164.369L316.725 149.538H321.157L309.564 172.569L297.97 149.538Z" fill="black"/>
<path d="M332.356 171.653C329.18 171.653 326.204 170.48 323.976 168.35C321.749 166.219 320.522 163.377 320.522 160.345C320.522 157.313 321.749 154.469 323.976 152.339C326.204 150.21 329.18 149.037 332.356 149.037C336.067 149.037 339.483 150.672 341.724 153.523L341.957 153.82L328.626 167.153C329.756 167.728 331.008 168.019 332.356 168.019C335.041 168.019 338.045 166.776 340.394 164.694L341.114 164.057V168.824L340.93 168.952C339.05 170.258 335.808 171.653 332.356 171.653ZM332.356 152.671C330.203 152.671 328.208 153.478 326.738 154.946C325.294 156.387 324.5 158.305 324.5 160.346C324.5 161.949 324.98 163.493 325.862 164.745L336.631 153.885C335.413 153.1 333.913 152.671 332.356 152.671Z" fill="black"/>
<mask id="mask0_101_2" style="mask-type:luminance" maskUnits="userSpaceOnUse" x="12" y="6" width="499" height="128">
<path d="M511 6H12V133.158H511V6Z" fill="white"/>
</mask>
<g mask="url(#mask0_101_2)">
<path d="M300.328 60.486L291.931 108.248H281.624L282.68 102.508C280.753 104.74 278.36 106.522 275.67 107.729C272.979 108.934 270.056 109.535 267.108 109.487C256.419 109.487 249.643 102.198 251.757 89.8064L256.911 60.486H267.218L262.265 88.7858C261.009 96.0751 264.342 99.829 271.025 99.829C277.418 99.829 283.444 96.1843 285.338 87.3098L290.02 60.486H300.328Z" fill="#7B10F4"/>
<path d="M354.744 84.4671C354.543 85.2325 354.069 87.3281 353.597 88.7677H315.608C315.789 96.403 321.234 100.029 328.483 100.029C331.034 100.108 333.57 99.6076 335.901 98.5662C338.232 97.5247 340.296 95.9691 341.941 94.0159L349.48 99.7378C346.81 102.908 343.455 105.432 339.672 107.121C335.886 108.809 331.768 109.618 327.626 109.487C311.984 109.487 303.297 97.8426 305.682 83.4101C306.797 76.6667 310.265 70.5371 315.469 66.1098C320.675 61.6826 327.279 59.2446 334.109 59.2287C348.443 59.2468 357.402 70.5267 354.744 84.4671ZM345.001 80.2577C345.091 72.0393 340.028 68.6133 333.454 68.6133C329.846 68.5825 326.318 69.6913 323.376 71.7819C320.434 73.8725 318.224 76.8383 317.064 80.2577H345.001Z" fill="#7B10F4"/>
<path d="M419.941 38.5641L407.593 108.248H397.286L398.342 102.508C396.035 104.822 393.275 106.636 390.236 107.837C387.196 109.037 383.942 109.599 380.678 109.487C366.363 109.487 358.531 96.7311 361.026 83.3192C363.595 69.0871 374.758 59.2468 388.127 59.2468C391.4 59.0874 394.654 59.8585 397.509 61.4709C400.365 63.0831 402.705 65.471 404.262 68.3582L407.776 48.8234L419.941 38.5641ZM401.203 85.9431L401.657 83.1733C402.623 74.0619 396.504 69.0326 388.782 69.0326C384.558 69.0197 380.472 70.5251 377.268 73.2746C374.062 76.0241 371.95 79.8345 371.317 84.0116C369.787 92.9042 375.122 99.592 383.809 99.592C387.816 99.5762 391.7 98.2233 394.852 95.7476C398.002 93.272 400.237 89.8152 401.203 85.925V85.9431Z" fill="#7B10F4"/>
<path d="M421.454 83.1186C422.702 76.3332 426.314 70.2107 431.651 65.8397C436.986 61.4687 443.697 59.1327 450.592 59.2468C464.724 59.2468 473.993 70.9095 471.498 85.3236C470.334 92.0544 466.845 98.1624 461.639 102.582C456.434 107.001 449.843 109.452 443.017 109.505C427.937 109.487 418.685 97.7333 421.454 83.1186ZM461.264 84.1756C462.977 74.7362 456.858 69.2693 449.153 69.2693C444.935 69.3009 440.868 70.8384 437.684 73.6045C434.497 76.3707 432.405 80.1841 431.778 84.3578C430.158 94.0159 435.967 99.4644 443.799 99.4644C448.057 99.4286 452.16 97.8663 455.364 95.0609C458.57 92.2555 460.663 88.3934 461.264 84.1756Z" fill="#7B10F4"/>
<path d="M493.335 93.3416C492.279 99.5556 496.577 99.4644 504.263 98.9724L502.64 108.248C487.744 110.07 480.877 105.751 483.081 93.3416L487.088 70.4174H478.218L480.041 60.486H488.819L490.639 50.1719L503.024 38.3818L499.072 60.486H511L509.179 70.4174H497.323L493.335 93.3416Z" fill="#7B10F4"/>
<path d="M232.562 78.727L227.408 108.248H237.716L242.779 79.0185L249.936 38.5277H249.79L237.662 49.7345L232.562 78.727Z" fill="#7B10F4"/>
<path d="M202.312 59.2468C199.028 59.2096 195.771 59.8525 192.746 61.1351C189.722 62.4176 186.995 64.3123 184.738 66.7L191.075 29.562L179.438 40.2952L167.182 108.248H177.49L178.837 100.485C180.327 103.331 182.601 105.69 185.39 107.282C188.179 108.875 191.365 109.633 194.572 109.469C209.379 109.469 219.867 98.0977 222.071 84.9227C224.258 71.1827 215.972 59.2468 202.312 59.2468ZM211.764 84.0844C211.136 88.3504 209.016 92.2551 205.782 95.1046C202.547 97.9539 198.407 99.5635 194.099 99.6467C185.612 99.6467 180.167 93.3416 181.696 84.3578C182.39 80.1298 184.55 76.2815 187.797 73.4889C191.044 70.6962 195.171 69.1377 199.453 69.0871C207.939 69.0871 213.294 75.1007 211.764 84.0844Z" fill="#7B10F4"/>
<path d="M40.5376 68.1212C40.3076 73.7409 41.4333 79.3333 43.8196 84.4254C46.206 89.5177 49.783 93.96 54.2478 97.3765C58.7128 100.793 63.9342 103.084 69.4707 104.054C75.0073 105.025 80.6961 104.647 86.0558 102.953C91.4156 101.258 96.2886 98.2974 100.263 94.3203C104.237 90.3431 107.196 85.4666 108.889 80.1036C110.582 74.7404 110.959 69.0482 109.988 63.5083C109.018 57.9684 106.728 52.744 103.313 48.2768L77.6896 71.9662C77.2205 72.4092 76.6301 72.7018 75.994 72.8072C75.3578 72.9126 74.7047 72.8257 74.1182 72.5577C73.5317 72.2897 73.0383 71.8528 72.7011 71.3027C72.3642 70.7527 72.1987 70.1144 72.226 69.4699L73.6282 34.6279C64.9343 35.0921 56.7254 38.7835 50.6062 44.9806C44.487 51.1776 40.8969 59.4352 40.5376 68.1395V68.1212Z" fill="#7B10F4"/>
<path d="M129.32 35.5939C127.823 33.2249 126.168 30.9601 124.366 28.815L108.103 43.8669C112.912 49.987 115.904 57.337 116.738 65.0777C117.571 72.8181 116.213 80.6372 112.817 87.6419C109.421 94.6466 104.125 100.555 97.5336 104.691C90.9423 108.828 83.3211 111.026 75.5406 111.036C74.9759 111.036 74.4114 111.036 73.8286 111.036C62.9619 110.734 52.6475 106.177 45.1023 98.3463C37.5572 90.5155 33.3839 80.0349 33.4793 69.1579C33.5749 58.2809 37.9314 47.8753 45.6127 40.1781C53.2938 32.4808 63.6867 28.1064 74.557 27.995L77.1796 28.1043C77.8427 28.1355 78.4806 28.3686 79.008 28.7724C79.5351 29.1762 79.9266 29.7315 80.1298 30.3638C80.2728 30.7919 80.3163 31.2468 80.2574 31.6942L79.0553 61.8893L119.977 24.0406C108.376 12.7079 92.8852 6.23967 76.6748 5.95948C60.4642 5.67929 44.7594 11.6083 32.7742 22.5334C20.7888 33.4584 13.429 48.5534 12.2008 64.7295C10.9726 80.9058 15.9689 96.9401 26.1671 109.551C36.3654 122.163 50.9948 130.398 67.0616 132.571C83.1283 134.745 99.4178 130.692 112.597 121.243C125.776 111.794 134.848 97.6633 137.956 81.7416C141.065 65.8198 137.975 49.3112 129.32 35.5939Z" fill="#7B10F4"/>
</g>
<path d="M181.607 169.764V166.528C181.499 166.865 181.182 167.33 180.656 167.924C180.144 168.517 179.436 169.056 178.532 169.542C177.642 170.014 176.59 170.25 175.376 170.25C173.839 170.25 172.443 169.886 171.189 169.158C169.948 168.429 168.957 167.411 168.215 166.103C167.487 164.781 167.123 163.237 167.123 161.47C167.123 159.704 167.487 158.166 168.215 156.858C168.957 155.536 169.948 154.511 171.189 153.783C172.443 153.041 173.839 152.67 175.376 152.67C176.577 152.67 177.615 152.886 178.492 153.318C179.382 153.749 180.09 154.248 180.616 154.815C181.155 155.381 181.472 155.867 181.567 156.271V153.156H185.046V169.764H181.607ZM170.602 161.47C170.602 162.671 170.865 163.709 171.391 164.586C171.917 165.462 172.598 166.143 173.434 166.629C174.284 167.101 175.187 167.337 176.145 167.337C177.17 167.337 178.087 167.094 178.896 166.609C179.705 166.123 180.346 165.442 180.818 164.565C181.29 163.675 181.526 162.644 181.526 161.47C181.526 160.297 181.29 159.272 180.818 158.395C180.346 157.505 179.705 156.817 178.896 156.332C178.087 155.833 177.17 155.583 176.145 155.583C175.187 155.583 174.284 155.826 173.434 156.312C172.598 156.797 171.917 157.478 171.391 158.355C170.865 159.232 170.602 160.27 170.602 161.47Z" fill="#484848"/>
<path d="M502.742 166.548L508.346 153.156H511.866L500.659 178.18H497.098L500.861 169.764L494.023 153.156H497.604L502.742 166.548Z" fill="#484848"/>
<path d="M484.909 152.67C486.002 152.67 487.06 152.9 488.085 153.358C489.124 153.817 489.974 154.545 490.634 155.543C491.309 156.527 491.646 157.815 491.646 159.407V169.764H488.085V160.095C488.085 158.449 487.701 157.256 486.932 156.514C486.164 155.759 485.172 155.381 483.959 155.381C483.163 155.381 482.394 155.61 481.652 156.069C480.924 156.514 480.324 157.134 479.852 157.93C479.38 158.712 479.144 159.602 479.144 160.6V169.764H475.624V153.156H479.144V156.109C479.265 155.651 479.596 155.152 480.135 154.612C480.675 154.073 481.362 153.614 482.199 153.237C483.035 152.859 483.938 152.67 484.909 152.67Z" fill="#484848"/>
<path d="M467.886 169.764V166.528C467.778 166.865 467.461 167.33 466.935 167.924C466.423 168.517 465.715 169.056 464.811 169.542C463.921 170.014 462.869 170.25 461.655 170.25C460.118 170.25 458.722 169.886 457.468 169.158C456.227 168.429 455.236 167.411 454.494 166.103C453.766 164.781 453.402 163.237 453.402 161.47C453.402 159.704 453.766 158.166 454.494 156.858C455.236 155.536 456.227 154.511 457.468 153.783C458.722 153.041 460.118 152.67 461.655 152.67C462.856 152.67 463.894 152.886 464.771 153.318C465.661 153.749 466.369 154.248 466.895 154.815C467.434 155.381 467.751 155.867 467.846 156.271V153.156H471.325V169.764H467.886ZM456.881 161.47C456.881 162.671 457.144 163.709 457.67 164.586C458.196 165.462 458.877 166.143 459.713 166.629C460.563 167.101 461.466 167.337 462.424 167.337C463.449 167.337 464.366 167.094 465.175 166.609C465.984 166.123 466.625 165.442 467.097 164.565C467.569 163.675 467.805 162.644 467.805 161.47C467.805 160.297 467.569 159.272 467.097 158.395C466.625 157.505 465.984 156.817 465.175 156.332C464.366 155.833 463.449 155.583 462.424 155.583C461.466 155.583 460.563 155.826 459.713 156.312C458.877 156.797 458.196 157.478 457.67 158.355C457.144 159.232 456.881 160.27 456.881 161.47Z" fill="#484848"/>
<path d="M436.808 178.18H433.308V153.156H436.868V156.271C436.99 155.853 437.327 155.361 437.88 154.794C438.433 154.228 439.175 153.736 440.105 153.318C441.049 152.886 442.128 152.67 443.342 152.67C444.879 152.67 446.242 153.041 447.428 153.783C448.629 154.511 449.566 155.536 450.24 156.858C450.928 158.166 451.272 159.704 451.272 161.47C451.272 163.237 450.921 164.781 450.22 166.103C449.519 167.411 448.561 168.429 447.347 169.158C446.147 169.886 444.772 170.25 443.221 170.25C441.966 170.25 440.867 170.014 439.923 169.542C438.993 169.07 438.258 168.537 437.718 167.944C437.192 167.35 436.889 166.878 436.808 166.528V178.18ZM447.793 161.47C447.793 160.27 447.543 159.232 447.044 158.355C446.558 157.478 445.911 156.797 445.102 156.312C444.293 155.826 443.416 155.583 442.472 155.583C441.434 155.583 440.49 155.833 439.64 156.332C438.79 156.817 438.116 157.505 437.617 158.395C437.118 159.272 436.868 160.297 436.868 161.47C436.868 162.644 437.118 163.675 437.617 164.565C438.116 165.442 438.79 166.123 439.64 166.609C440.49 167.094 441.434 167.337 442.472 167.337C443.416 167.337 444.293 167.101 445.102 166.629C445.911 166.143 446.558 165.462 447.044 164.586C447.543 163.709 447.793 162.671 447.793 161.47Z" fill="#484848"/>
<path d="M422.918 152.67C424.145 152.67 425.197 152.94 426.073 153.48C426.95 154.006 427.618 154.815 428.076 155.907C428.548 157 428.784 158.395 428.784 160.095V169.764H425.305V160.803C425.305 159.009 425.055 157.66 424.556 156.757C424.057 155.853 423.147 155.401 421.825 155.401C421.124 155.401 420.45 155.597 419.802 155.988C419.168 156.366 418.642 156.952 418.224 157.748C417.82 158.544 417.617 159.562 417.617 160.803V169.764H414.34V160.803C414.34 159.009 414.03 157.66 413.41 156.757C412.789 155.853 411.919 155.401 410.8 155.401C410.085 155.401 409.411 155.59 408.777 155.968C408.157 156.332 407.651 156.912 407.26 157.708C406.869 158.503 406.673 159.535 406.673 160.803V169.764H403.173V153.156H406.673V155.705C406.821 155.287 407.138 154.842 407.624 154.37C408.123 153.898 408.757 153.5 409.525 153.176C410.308 152.839 411.178 152.67 412.135 152.67C413.133 152.67 413.969 152.873 414.644 153.277C415.318 153.682 415.851 154.181 416.242 154.774C416.633 155.354 416.903 155.914 417.051 156.453C417.24 155.873 417.604 155.293 418.143 154.714C418.683 154.12 419.364 153.635 420.187 153.257C421.009 152.866 421.92 152.67 422.918 152.67Z" fill="#484848"/>
<path d="M390.774 170.25C389.062 170.25 387.538 169.866 386.202 169.097C384.881 168.328 383.842 167.29 383.087 165.982C382.332 164.66 381.954 163.17 381.954 161.511C381.954 159.852 382.332 158.355 383.087 157.02C383.842 155.685 384.881 154.626 386.202 153.844C387.538 153.061 389.062 152.67 390.774 152.67C392.474 152.67 393.977 153.061 395.286 153.844C396.607 154.626 397.639 155.685 398.381 157.02C399.123 158.355 399.493 159.852 399.493 161.511C399.493 163.17 399.123 164.66 398.381 165.982C397.639 167.29 396.607 168.328 395.286 169.097C393.977 169.866 392.474 170.25 390.774 170.25ZM390.774 167.236C391.853 167.236 392.791 166.986 393.586 166.487C394.396 165.988 395.023 165.307 395.468 164.444C395.913 163.567 396.135 162.583 396.135 161.491C396.135 160.398 395.913 159.414 395.468 158.537C395.023 157.66 394.396 156.966 393.586 156.453C392.791 155.941 391.853 155.685 390.774 155.685C389.682 155.685 388.731 155.941 387.922 156.453C387.113 156.966 386.479 157.66 386.02 158.537C385.575 159.414 385.353 160.398 385.353 161.491C385.353 162.583 385.575 163.567 386.02 164.444C386.479 165.307 387.113 165.988 387.922 166.487C388.731 166.986 389.682 167.236 390.774 167.236Z" fill="#484848"/>
<path d="M374.528 167.337C375.58 167.337 376.43 167.168 377.077 166.831C377.725 166.494 378.129 166.251 378.291 166.103L380.011 168.632C379.876 168.753 379.552 168.949 379.04 169.218C378.541 169.475 377.893 169.711 377.098 169.926C376.315 170.142 375.425 170.25 374.427 170.25C372.903 170.25 371.487 169.913 370.179 169.238C368.871 168.551 367.812 167.553 367.003 166.244C366.207 164.936 365.809 163.338 365.809 161.45C365.809 159.548 366.207 157.95 367.003 156.656C367.812 155.347 368.871 154.356 370.179 153.682C371.487 153.008 372.903 152.67 374.427 152.67C375.412 152.67 376.288 152.792 377.057 153.034C377.826 153.264 378.46 153.52 378.959 153.803C379.458 154.086 379.788 154.302 379.95 154.451L378.21 156.979C378.102 156.871 377.893 156.71 377.583 156.494C377.286 156.264 376.882 156.055 376.369 155.867C375.857 155.678 375.243 155.583 374.528 155.583C373.665 155.583 372.822 155.819 372 156.291C371.19 156.75 370.523 157.418 369.997 158.294C369.471 159.171 369.208 160.223 369.208 161.45C369.208 162.677 369.471 163.736 369.997 164.626C370.523 165.503 371.19 166.177 372 166.649C372.822 167.108 373.665 167.337 374.528 167.337Z" fill="#484848"/>
</g>
<path d="M598.845 138V63.75H617.925C623.205 63.75 628.11 64.695 632.64 66.585C637.17 68.475 641.13 71.115 644.52 74.505C647.94 77.865 650.595 81.81 652.485 86.34C654.405 90.84 655.365 95.7 655.365 100.92C655.365 106.14 654.42 111 652.53 115.5C650.64 120 647.985 123.945 644.565 127.335C641.175 130.695 637.2 133.32 632.64 135.21C628.11 137.07 623.205 138 617.925 138H598.845ZM610.635 127.425H616.665C620.385 127.425 623.82 126.765 626.97 125.445C630.15 124.125 632.91 122.265 635.25 119.865C637.62 117.465 639.45 114.66 640.74 111.45C642.06 108.21 642.72 104.685 642.72 100.875C642.72 97.095 642.06 93.585 640.74 90.345C639.45 87.105 637.62 84.3 635.25 81.93C632.91 79.53 630.15 77.67 626.97 76.35C623.82 75 620.385 74.325 616.665 74.325H610.635V127.425ZM699.604 139.44C694.414 139.44 689.554 138.45 685.024 136.47C680.494 134.49 676.519 131.745 673.099 128.235C669.679 124.695 666.994 120.6 665.044 115.95C663.124 111.27 662.164 106.26 662.164 100.92C662.164 95.55 663.124 90.54 665.044 85.89C666.994 81.24 669.679 77.16 673.099 73.65C676.519 70.11 680.494 67.35 685.024 65.37C689.554 63.39 694.414 62.4 699.604 62.4C704.794 62.4 709.654 63.39 714.184 65.37C718.714 67.35 722.689 70.11 726.109 73.65C729.529 77.16 732.199 81.24 734.119 85.89C736.069 90.54 737.044 95.55 737.044 100.92C737.044 106.26 736.069 111.27 734.119 115.95C732.199 120.6 729.529 124.695 726.109 128.235C722.689 131.745 718.714 134.49 714.184 136.47C709.654 138.45 704.794 139.44 699.604 139.44ZM699.604 128.1C703.144 128.1 706.414 127.425 709.414 126.075C712.444 124.695 715.069 122.79 717.289 120.36C719.539 117.9 721.279 115.02 722.509 111.72C723.739 108.42 724.354 104.82 724.354 100.92C724.354 97.02 723.739 93.42 722.509 90.12C721.279 86.82 719.539 83.955 717.289 81.525C715.069 79.065 712.444 77.16 709.414 75.81C706.414 74.43 703.144 73.74 699.604 73.74C696.094 73.74 692.824 74.43 689.794 75.81C686.794 77.16 684.169 79.065 681.919 81.525C679.699 83.955 677.974 86.82 676.744 90.12C675.514 93.42 674.899 97.02 674.899 100.92C674.899 104.82 675.514 108.42 676.744 111.72C677.974 115.02 679.699 117.9 681.919 120.36C684.169 122.79 686.794 124.695 689.794 126.075C692.824 127.425 696.094 128.1 699.604 128.1ZM782.266 139.44C776.656 139.44 771.421 138.465 766.561 136.515C761.701 134.535 757.426 131.79 753.736 128.28C750.076 124.77 747.211 120.69 745.141 116.04C743.071 111.36 742.036 106.32 742.036 100.92C742.036 95.55 743.071 90.525 745.141 85.845C747.241 81.165 750.121 77.07 753.781 73.56C757.441 70.05 761.686 67.32 766.516 65.37C771.376 63.39 776.596 62.4 782.176 62.4C786.766 62.4 791.116 63.06 795.226 64.38C799.336 65.7 802.891 67.455 805.891 69.645L800.716 79.635C798.466 77.835 795.796 76.44 792.706 75.45C789.616 74.46 786.361 73.965 782.941 73.965C778.891 73.965 775.156 74.655 771.736 76.035C768.316 77.415 765.331 79.335 762.781 81.795C760.261 84.225 758.311 87.075 756.931 90.345C755.551 93.615 754.861 97.14 754.861 100.92C754.861 104.7 755.551 108.225 756.931 111.495C758.311 114.765 760.261 117.63 762.781 120.09C765.331 122.52 768.316 124.425 771.736 125.805C775.156 127.185 778.891 127.875 782.941 127.875C786.361 127.875 789.616 127.38 792.706 126.39C795.796 125.4 798.466 124.005 800.716 122.205L805.891 132.195C802.981 134.325 799.471 136.065 795.361 137.415C791.281 138.765 786.916 139.44 782.266 139.44ZM833.862 139.44C830.292 139.44 827.052 138.99 824.142 138.09C821.232 137.19 818.667 136.08 816.447 134.76C814.257 133.41 812.412 132.06 810.912 130.71C809.412 129.36 808.272 128.25 807.492 127.38L813.702 117.84C814.542 118.71 815.592 119.745 816.852 120.945C818.142 122.145 819.642 123.33 821.352 124.5C823.062 125.64 824.982 126.6 827.112 127.38C829.242 128.13 831.597 128.505 834.177 128.505C836.607 128.505 838.782 128.1 840.702 127.29C842.622 126.48 844.152 125.28 845.292 123.69C846.432 122.07 847.002 120.075 847.002 117.705C847.002 115.635 846.567 113.865 845.697 112.395C844.857 110.925 843.642 109.65 842.052 108.57C840.462 107.46 838.572 106.41 836.382 105.42C834.192 104.4 831.747 103.35 829.047 102.27C827.127 101.46 825.222 100.515 823.332 99.435C821.472 98.355 819.777 97.065 818.247 95.565C816.747 94.065 815.547 92.34 814.647 90.39C813.747 88.41 813.297 86.13 813.297 83.55C813.297 80.76 813.837 78.105 814.917 75.585C816.027 73.035 817.587 70.77 819.597 68.79C821.607 66.81 823.992 65.25 826.752 64.11C829.542 62.97 832.647 62.4 836.067 62.4C838.857 62.4 841.572 62.805 844.212 63.615C846.852 64.425 849.252 65.475 851.412 66.765C853.602 68.055 855.387 69.435 856.767 70.905L851.637 79.86C850.497 78.69 849.132 77.595 847.542 76.575C845.982 75.525 844.242 74.685 842.322 74.055C840.402 73.425 838.392 73.11 836.292 73.11C833.832 73.11 831.747 73.59 830.037 74.55C828.327 75.51 827.007 76.77 826.077 78.33C825.177 79.86 824.727 81.525 824.727 83.325C824.727 84.885 825.042 86.22 825.672 87.33C826.332 88.41 827.232 89.34 828.372 90.12C829.512 90.9 830.817 91.62 832.287 92.28C833.787 92.91 835.362 93.54 837.012 94.17C840.282 95.49 843.297 96.84 846.057 98.22C848.847 99.57 851.262 101.115 853.302 102.855C855.342 104.565 856.917 106.605 858.027 108.975C859.167 111.315 859.737 114.135 859.737 117.435C859.737 122.055 858.627 126.015 856.407 129.315C854.217 132.615 851.172 135.135 847.272 136.875C843.402 138.585 838.932 139.44 833.862 139.44Z" fill="#18182D" fill-opacity="0.64"/>
<line x1="556.5" y1="16" x2="556.5" y2="182" stroke="#A2A2A2"/>
<defs>
<clipPath id="clip0_101_2">
<rect width="499" height="177.251" fill="white" transform="translate(12 6)"/>
</clipPath>
</defs>
</svg>
