<?xml version="1.0" encoding="UTF-8"?>
<svg width="300px" height="300px" viewBox="0 0 300 300" version="1.1" xmlns="http://www.w3.org/2000/svg" xmlns:xlink="http://www.w3.org/1999/xlink">
    <title>Artboard</title>
    <g id="Artboard" stroke="none" stroke-width="1" fill="none" fill-rule="evenodd">
        <g id="bluedot-logo" fill="#7B10F4" fill-rule="nonzero">
            <g id="Group" transform="translate(150.000000, 149.500000) scale(-1, 1) rotate(-180.000000) translate(-150.000000, -149.500000) ">
                <path d="M142.421081,298.918473 C102.254173,296.562376 67.2305878,280.283879 40.1056786,251.36813 C17.3893324,227.195175 3.55134253,196.229313 0.52045537,162.784961 C-0.122460087,155.655469 -0.153075109,142.895821 0.52045537,135.705132 C2.72473695,110.889605 11.1438679,87.0532355 24.9512427,66.3991287 C30.7068668,57.8009006 36.1563408,51.2527837 44.1162464,43.2665289 C68.3021135,19.124173 98.366065,4.7427949 133.38965,0.550776182 C137.063453,0.122394707 140.308645,0 149.768687,0 C160.116564,0 162.229,0.0917960305 167.158019,0.703769566 C188.864069,3.39645313 208.518914,10.0669647 226.734851,20.9600936 C244.981405,31.8838213 261.329826,47.2749557 273.269684,64.7773989 C285.087083,82.0656512 293.138833,101.618206 296.843251,121.935727 C302.353956,152.075424 298.863843,181.75614 286.525989,210.274106 C282.944032,218.53575 276.882258,229.031095 271.187863,236.833758 C269.044812,239.771232 265.248549,244.544625 264.881169,244.789415 C264.605634,244.942409 258.850009,239.80183 250.951333,232.39695 C249.941039,231.448391 247.185686,228.878102 244.828328,226.705596 C230.898494,213.915349 226.612392,209.906923 226.612392,209.662133 C226.612392,209.509139 227.224691,208.621779 227.928836,207.673219 C228.663597,206.72466 230.102505,204.705148 231.112799,203.175214 C244.736485,182.827094 249.941039,158.470547 246.022316,133.257238 C244.644639,124.383621 241.368833,114.347255 237.052113,105.718428 C223.612119,78.8833889 198.538415,59.6674198 169.270455,53.7006778 C152.003583,50.2124286 133.175345,51.4975731 116.979998,57.3419202 C112.387745,58.9942489 111.101914,59.5144264 106.754581,61.6563337 C92.1512156,68.8470228 79.5378267,79.5565597 70.0165547,92.8975828 C60.8626633,105.749027 55.3519594,119.610228 52.8415277,136.164112 C52.1986122,140.417328 51.953692,152.289614 52.3823022,157.583185 C54.9845791,189.16102 72.8331367,217.373 100.631577,233.77389 C112.17344,240.566797 126.5625,245.248395 139.818804,246.472342 C145.084588,246.961921 154.758935,246.870124 156.044766,246.349947 C157.881667,245.554382 159.228728,244.330435 160.085949,242.586309 C160.759479,241.178771 160.881939,240.505601 160.851324,238.700278 C160.820709,236.711364 160.300254,223.82932 158.677658,182.368114 C158.340893,174.290063 158.095972,167.65015 158.126587,167.619552 C158.218433,167.558354 159.075653,168.35392 176.25068,184.204034 C189.813135,196.718894 198.660877,204.888739 206.712627,212.324218 C209.988435,215.353488 215.162374,220.096283 218.19326,222.91136 C231.020955,234.753049 248.073521,250.511367 251.012563,253.173453 C252.75762,254.733985 254.16591,256.172122 254.135295,256.386314 C254.104682,256.814694 248.287826,262.138864 244.369103,265.321126 C221.132302,284.200511 193.425707,295.583217 163.943442,298.337098 C159.136883,298.796078 146.217344,299.132665 142.421081,298.918473 Z" id="Path"></path>
                <path d="M140.58418,231.264799 C137.890058,230.989411 130.634298,229.551274 127.572796,228.663912 C99.3457457,220.738854 77.211085,198.340622 70.0471698,170.43463 C67.8735033,162.050592 67.567353,159.510902 67.567353,149.321543 C67.567353,141.0599 67.6285831,139.744157 68.2714986,136.164112 C71.0574656,120.466991 76.8437047,108.013329 86.8854319,96.0798451 C100.172351,80.2603293 119.12305,70.0403711 139.665729,67.5924771 C144.686593,67.0111022 154.881395,67.0111022 159.963489,67.6230757 C169.23984,68.7246281 179.250952,71.8150945 187.425163,76.0989092 C195.446299,80.3215266 201.232537,84.5747426 207.784153,91.1534581 C214.825608,98.1911538 218.958636,103.82131 223.091663,111.960558 C227.622688,120.864773 230.378038,130.013778 231.54141,139.835953 C232.123095,144.639945 232.031251,155.16589 231.388334,159.847488 C229.551434,173.372103 224.867335,185.550376 217.213579,196.5353 L215.223603,199.380978 L213.815312,198.065236 C213.019321,197.361466 209.896589,194.48519 206.865701,191.700711 C203.865431,188.916231 199.456868,184.877205 197.068894,182.704699 C194.711538,180.501595 191.19081,177.258135 189.262065,175.483411 C183.506441,170.128643 170.097061,157.766778 161.67793,150.055911 C152.860804,141.947262 152.370963,141.641275 149.064541,141.886064 C146.003039,142.130854 144.074293,143.507794 142.696617,146.322873 L141.992471,147.76101 L142.359851,157.124205 C143.645682,190.231973 144.288598,206.326878 144.564133,211.283863 C144.717208,214.404929 144.962128,220.218678 145.053973,224.227104 L145.268278,231.478989 L143.461992,231.417793 C142.482311,231.417793 141.165865,231.325996 140.58418,231.264799 Z" id="Path"></path>
            </g>
        </g>
    </g>
</svg>