<svg width="91" height="91" viewBox="0 0 91 91" fill="none" xmlns="http://www.w3.org/2000/svg">
<path d="M0.0373269 43.6411C-0.258533 50.9437 1.20786 58.2101 4.31251 64.8259C7.41715 71.4417 12.0687 77.2124 17.8739 81.6499C23.6791 86.0874 30.4671 89.0612 37.6639 90.3199C44.8608 91.5786 52.2548 91.0851 59.2207 88.8812C66.1866 86.6773 72.5196 82.8277 77.684 77.6581C82.8484 72.4885 86.6924 66.1508 88.891 59.1811C91.0895 52.2113 91.578 44.8144 90.315 37.6159C89.052 30.4174 86.0747 23.629 81.6349 17.8248L48.266 48.5413C47.6612 49.1112 46.9001 49.4876 46.0801 49.6224C45.2602 49.7571 44.4187 49.6441 43.6634 49.2977C42.9 48.9533 42.2589 48.3855 41.8245 47.6693C41.3902 46.953 41.1832 46.1219 41.2306 45.2855L43.0388 0C32.4573 0.603784 22.4153 4.87079 14.6341 12.0696C10.231 16.1018 6.67303 20.9694 4.16715 26.3894C1.66127 31.8094 0.257455 37.6736 0.0373269 43.6411V43.6411Z" fill="#7B10F4"/>
</svg>
