<svg width="167" height="167" viewBox="0 0 167 167" fill="none" xmlns="http://www.w3.org/2000/svg">
<path d="M154.133 38.9769C152.12 35.8666 149.902 32.8943 147.493 30.0798L126.145 49.7995C127.349 51.2996 128.458 52.8741 129.465 54.5136C134.638 62.7389 137.515 72.1985 137.798 81.9107C138.08 91.6229 135.759 101.234 131.074 109.746C126.389 118.259 119.511 125.362 111.154 130.32C102.797 135.278 93.2653 137.909 83.5482 137.941H81.2906C74.1445 137.651 67.1256 135.956 60.6345 132.954C54.1434 129.952 48.3072 125.7 43.4592 120.443C38.6112 115.185 34.8464 109.024 32.3796 102.312C29.9128 95.5992 28.7924 88.4666 29.0823 81.3211C29.3722 74.1757 31.0669 67.1573 34.0694 60.6667C37.0719 54.1761 41.3236 48.3404 46.5816 43.4928C51.8396 38.6452 58.001 34.8806 64.7141 32.414C71.4271 29.9474 78.5602 28.8271 85.7063 29.117C86.5847 29.144 87.4331 29.4426 88.1347 29.9718C88.8363 30.5009 89.3566 31.2346 89.624 32.0716C89.8226 32.6355 89.8908 33.2371 89.8232 33.8311L88.2295 73.4365L141.882 23.8385C126.59 8.85574 106.124 0.324197 84.7166 0.00905074C63.3097 -0.306096 42.6007 7.61927 26.8745 22.1454C15.2144 32.9038 6.86104 46.7612 2.79236 62.0951C-1.27631 77.4289 -0.891852 93.6045 3.90073 108.728C8.69331 123.851 17.6956 137.296 29.8536 147.488C42.0116 157.681 56.822 164.199 72.5506 166.279C88.2793 168.359 104.275 165.916 118.665 159.235C133.055 152.554 145.244 141.911 153.804 128.554C162.364 115.197 166.941 99.6777 166.999 83.8134C167.058 67.9492 162.595 52.3966 154.133 38.9769Z" fill="#7B10F4"/>
</svg>
