<svg width="72" height="41" viewBox="0 0 72 41" fill="none" xmlns="http://www.w3.org/2000/svg">
<path d="M68.9164 9.64257C67.361 6.72055 65.0377 4.27838 62.1969 2.57922C59.3561 0.880053 56.1054 -0.0116779 52.7952 0.000115479H1.74358C1.39753 0.00303409 1.06004 0.107998 0.773371 0.301859C0.486704 0.495719 0.263613 0.769858 0.132043 1.08993C0.000473319 1.41001 -0.033726 1.76179 0.0337293 2.10122C0.101185 2.44065 0.267295 2.75262 0.511254 2.99807L11.6311 14.1827C12.1175 14.6717 12.6958 15.0598 13.3328 15.3244C13.9697 15.5891 14.6527 15.7252 15.3425 15.7249H51.3323C51.9418 15.7188 52.5465 15.8328 53.1119 16.0603C53.6774 16.2879 54.1924 16.6245 54.6277 17.0512C55.0631 17.4778 55.4101 17.986 55.649 18.5467C55.8879 19.1074 56.0141 19.7097 56.0202 20.3192C56.0264 20.9286 55.9124 21.5334 55.6848 22.0988C55.4573 22.6642 55.1206 23.1793 54.694 23.6146C54.2674 24.0499 53.7592 24.3969 53.1985 24.6359C52.6378 24.8748 52.0355 25.0009 51.426 25.0071H26.6136C26.2669 25.0086 25.9285 25.1125 25.6407 25.3058C25.3529 25.4992 25.1287 25.7732 24.9963 26.0936C24.8638 26.414 24.829 26.7663 24.8962 27.1064C24.9635 27.4465 25.1297 27.7591 25.3741 28.005L36.5011 39.1969C36.9873 39.6862 37.5656 40.0744 38.2026 40.3391C38.8396 40.6038 39.5227 40.7398 40.2125 40.7391H51.4332C66.0338 40.7391 77.0743 25.1296 68.9164 9.63536" fill="#EB1700"/>
</svg>
